<svg width="157" height="95" viewBox="0 0 157 95" fill="none" xmlns="http://www.w3.org/2000/svg">
<g id="Group 62">
<g id="Group 61">
<g id="Rectangle 42">
<path d="M41.5408 75.8281L67.2665 74.5839C67.2665 74.5839 89.8962 65.51 100.43 83.6957C110.963 101.881 80.8475 124.703 80.8475 124.703L70.2584 122.458L76.3387 99.6528C76.3387 99.6528 50.3489 106.099 41.5408 75.8281Z" fill="#00ADB5"/>
<path d="M41.5408 75.8281L41.528 75.5638C41.4471 75.5677 41.3725 75.6085 41.3254 75.6744C41.2784 75.7404 41.2641 75.8242 41.2867 75.902L41.5408 75.8281ZM67.2665 74.5839L67.2792 74.8482L67.3237 74.8461L67.3649 74.8295L67.2665 74.5839ZM80.8475 124.703L80.7926 124.962L80.9109 124.987L81.0073 124.914L80.8475 124.703ZM70.2584 122.458L70.0027 122.39L69.9309 122.659L70.2035 122.717L70.2584 122.458ZM76.3387 99.6528L76.5944 99.721L76.7098 99.2882L76.275 99.396L76.3387 99.6528ZM41.5536 76.0924L67.2792 74.8482L67.2537 74.3196L41.528 75.5638L41.5536 76.0924ZM80.9024 124.444L70.3133 122.199L70.2035 122.717L80.7926 124.962L80.9024 124.444ZM70.5141 122.526L76.5944 99.721L76.083 99.5847L70.0027 122.39L70.5141 122.526ZM76.3387 99.6528C76.275 99.396 76.275 99.396 76.275 99.396C76.2748 99.396 76.2747 99.3961 76.2744 99.3961C76.2738 99.3963 76.2728 99.3965 76.2714 99.3969C76.2687 99.3975 76.2644 99.3986 76.2585 99.4C76.2468 99.4028 76.2289 99.407 76.205 99.4124C76.1573 99.4233 76.0855 99.4392 75.991 99.4587C75.8021 99.4978 75.5225 99.5515 75.1627 99.6094C74.443 99.7253 73.4029 99.8577 72.1267 99.9228C69.5732 100.053 66.0797 99.9137 62.3155 98.8375C54.8042 96.6901 46.1734 90.8019 41.7949 75.7542L41.2867 75.902C45.7163 91.125 54.4844 97.1491 62.17 99.3464C66.0043 100.443 69.5587 100.584 72.1536 100.451C73.4515 100.385 74.5108 100.25 75.2468 100.132C75.6148 100.073 75.9022 100.018 76.0983 99.977C76.1963 99.9567 76.2715 99.9401 76.3227 99.9284C76.3482 99.9226 76.3678 99.918 76.3811 99.9148C76.3878 99.9132 76.3929 99.912 76.3964 99.9111C76.3982 99.9107 76.3996 99.9104 76.4006 99.9101C76.4011 99.91 76.4015 99.9099 76.4018 99.9098C76.4021 99.9097 76.4024 99.9097 76.3387 99.6528ZM67.2665 74.5839C67.3649 74.8295 67.3649 74.8295 67.365 74.8295C67.3651 74.8294 67.3653 74.8294 67.3656 74.8293C67.3661 74.829 67.367 74.8287 67.3682 74.8282C67.3707 74.8272 67.3745 74.8257 67.3797 74.8237C67.3901 74.8196 67.4058 74.8134 67.4268 74.8054C67.4688 74.7892 67.5317 74.7653 67.6147 74.7347C67.7805 74.6736 68.0261 74.586 68.3429 74.4806C68.9766 74.2699 69.8951 73.9885 71.0306 73.7071C73.3026 73.1441 76.4383 72.5824 79.8979 72.5848C86.8128 72.5895 94.9966 74.8436 100.201 83.8283L100.659 83.5631C95.3294 74.3621 86.9315 72.0603 79.8982 72.0555C76.3836 72.0531 73.2035 72.6234 70.9033 73.1934C69.7527 73.4785 68.8209 73.764 68.1759 73.9784C67.8534 74.0857 67.6025 74.1752 67.4317 74.2381C67.3463 74.2696 67.2809 74.2944 67.2366 74.3115C67.2144 74.32 67.1976 74.3266 67.1861 74.3311C67.1803 74.3334 67.1759 74.3351 67.1729 74.3363C67.1714 74.3369 67.1702 74.3374 67.1694 74.3377C67.169 74.3379 67.1686 74.338 67.1684 74.3381C67.1682 74.3382 67.168 74.3383 67.2665 74.5839ZM100.201 83.8283C102.79 88.2984 102.887 93.0571 101.559 97.7025C100.23 102.354 97.4755 106.881 94.3799 110.857C91.2859 114.83 87.8621 118.24 85.2102 120.658C83.8847 121.866 82.7529 122.825 81.953 123.483C81.5531 123.811 81.2361 124.064 81.0195 124.234C80.9111 124.32 80.8279 124.384 80.7719 124.428C80.7439 124.449 80.7227 124.466 80.7085 124.476C80.7015 124.482 80.6962 124.486 80.6927 124.488C80.691 124.49 80.6897 124.491 80.6888 124.491C80.6884 124.492 80.6881 124.492 80.6879 124.492C80.6877 124.492 80.6877 124.492 80.8475 124.703C81.0073 124.914 81.0075 124.914 81.0078 124.914C81.008 124.913 81.0084 124.913 81.0089 124.913C81.0099 124.912 81.0114 124.911 81.0133 124.91C81.017 124.907 81.0226 124.902 81.03 124.897C81.0448 124.885 81.0666 124.869 81.0953 124.847C81.1525 124.802 81.2371 124.737 81.3468 124.65C81.5661 124.478 81.886 124.222 82.2889 123.891C83.0948 123.229 84.2336 122.264 85.5668 121.049C88.2324 118.619 91.6792 115.187 94.7975 111.182C97.9142 107.179 100.713 102.59 102.068 97.8479C103.425 93.0996 103.336 88.1859 100.659 83.5631L100.201 83.8283Z" fill="black"/>
</g>
<path id="Rectangle 41" d="M40.4961 76.7226L74.4474 76.4356C74.4474 76.4356 98.3246 81.3672 97.064 102.345C95.8033 123.324 58.0933 125.72 58.0933 125.72L50.5049 118.001L69.24 100.057C69.24 100.057 43.7015 105.833 40.4961 76.7226Z" fill="#00ADB5" stroke="black" stroke-width="0.529231"/>
</g>
<g id="Group 78">
<g id="Group 2349">
<g id="Group 58">
<g id="Group 57">
<g id="Union">
<path fill-rule="evenodd" clip-rule="evenodd" d="M43.6731 41.5679C44.161 40.8903 44.5437 40.1244 44.7811 39.2609C46.5726 32.7423 41.0296 28.5122 36.5182 27.4147C32.0068 26.3173 17.0223 38.1625 33.4227 46.3045C33.4669 46.302 33.5118 46.2993 33.5574 46.2963C36.1852 48.3758 37.0258 51.12 38.0344 54.4126C38.4459 55.7556 38.8852 57.1899 39.4852 58.7075L46.9846 52.7847C47.1516 48.3699 45.9575 44.8459 43.6731 41.5679Z" fill="#F5B9AB"/>
<path d="M44.7811 39.2609L45.0362 39.331L44.7811 39.2609ZM43.6731 41.5679L43.4583 41.4133C43.3927 41.5045 43.3918 41.6271 43.456 41.7192L43.6731 41.5679ZM36.5182 27.4147L36.4557 27.6718L36.5182 27.4147ZM33.4227 46.3045L33.305 46.5415C33.346 46.5618 33.3915 46.5712 33.4372 46.5687L33.4227 46.3045ZM33.5574 46.2963L33.7216 46.0888C33.6702 46.0481 33.6055 46.028 33.54 46.0323L33.5574 46.2963ZM38.0344 54.4126L37.7814 54.4901L37.7814 54.4901L38.0344 54.4126ZM39.4852 58.7075L39.2391 58.8048C39.2699 58.8826 39.3356 58.9413 39.4164 58.963C39.4972 58.9848 39.5836 58.967 39.6492 58.9152L39.4852 58.7075ZM46.9846 52.7847L47.1486 52.9924C47.2094 52.9444 47.2461 52.8721 47.249 52.7947L46.9846 52.7847ZM44.5259 39.1908C44.2975 40.022 43.9291 40.7595 43.4583 41.4133L43.8878 41.7226C44.393 41.021 44.79 40.2267 45.0362 39.331L44.5259 39.1908ZM36.4557 27.6718C38.6667 28.2097 41.1285 29.5164 42.8125 31.4773C44.4885 33.4289 45.3955 36.0269 44.5259 39.1908L45.0362 39.331C45.9583 35.9763 44.9895 33.2 43.214 31.1325C41.4465 29.0743 38.881 27.7172 36.5807 27.1576L36.4557 27.6718ZM33.5403 46.0674C29.4727 44.0481 27.3997 41.8227 26.6011 39.6716C25.805 37.5274 26.255 35.4016 27.3566 33.529C28.4603 31.6528 30.2091 30.0498 31.9624 28.9844C32.8381 28.4523 33.7081 28.0585 34.491 27.8315C35.2788 27.603 35.9551 27.5501 36.4557 27.6718L36.5807 27.1576C35.9535 27.005 35.1746 27.0822 34.3435 27.3232C33.5075 27.5657 32.5948 27.9809 31.6876 28.5321C29.875 29.6335 28.0568 31.2949 26.9005 33.2606C25.742 35.2299 25.239 37.5234 26.105 39.8558C26.9684 42.1814 29.1724 44.4898 33.305 46.5415L33.5403 46.0674ZM33.54 46.0323C33.4954 46.0352 33.4514 46.0379 33.4082 46.0402L33.4372 46.5687C33.4824 46.5662 33.5283 46.5634 33.5748 46.5604L33.54 46.0323ZM38.2875 54.3351C37.2822 51.0536 36.4234 48.2269 33.7216 46.0888L33.3932 46.5038C35.9469 48.5246 36.7694 51.1864 37.7814 54.4901L38.2875 54.3351ZM39.7313 58.6102C39.1357 57.1037 38.6991 55.679 38.2874 54.3351L37.7814 54.4901C38.1926 55.8323 38.6347 57.2761 39.2391 58.8048L39.7313 58.6102ZM46.8206 52.577L39.3212 58.4999L39.6492 58.9152L47.1486 52.9924L46.8206 52.577ZM43.456 41.7192C45.7099 44.9535 46.8848 48.4215 46.7201 52.7747L47.249 52.7947C47.4183 48.3184 46.205 44.7383 43.8902 41.4166L43.456 41.7192Z" fill="black"/>
</g>
<path id="Vector 66" d="M26.5935 39.2976C26.5264 41.8523 30.736 45.188 32.4369 45.5819C21.2504 46.5957 19.4813 32.931 23.248 33.0819C21.1011 29.0446 24.5137 24.7859 29.6158 25.9668C32.9422 15.0008 40.2261 24.8835 38.6724 28.1953C37.1186 31.5072 32.9623 32.1838 31.8644 34.0932C30.7666 36.0027 33.0312 41.5097 30.6823 39.1955C28.3333 36.8812 26.6774 36.1043 26.5935 39.2976Z" fill="#00ADB5" stroke="black" stroke-width="0.529231"/>
</g>
</g>
<g id="Vector 53">
<path d="M75.259 75.2794C80.0849 64.1603 64.5856 52.817 61.1669 50.4873C60.7275 50.1879 60.2813 49.9247 59.8166 49.6666C50.9194 44.7253 38.3987 44.0785 33.8409 53.1781C25.8741 69.0837 45.7363 85.6892 53.0723 96.2662L75.259 75.2794Z" fill="#EEEEEE"/>
<path d="M61.1669 50.4873L61.0178 50.706L61.1669 50.4873ZM75.259 75.2794L75.4409 75.4716L75.4802 75.4344L75.5018 75.3847L75.259 75.2794ZM53.0723 96.2662L52.8548 96.4171C52.8988 96.4804 52.9682 96.5215 53.045 96.5294C53.1217 96.5374 53.1981 96.5115 53.2541 96.4585L53.0723 96.2662ZM33.8409 53.1781L33.6043 53.0596L33.8409 53.1781ZM59.8166 49.6666L59.9451 49.4353L59.9451 49.4353L59.8166 49.6666ZM61.0178 50.706C62.7203 51.8661 67.4251 55.2674 71.1 59.755C74.7843 64.254 77.3667 69.7587 75.0163 75.174L75.5018 75.3847C77.9773 69.681 75.223 63.9545 71.5094 59.4197C67.7864 54.8734 63.0322 51.4382 61.3159 50.2686L61.0178 50.706ZM75.0772 75.0871L52.8904 96.074L53.2541 96.4585L75.4409 75.4716L75.0772 75.0871ZM53.2897 96.1154C51.4467 93.4581 48.8183 90.424 46.0547 87.1379C43.2858 83.8457 40.3733 80.2918 37.9394 76.5754C33.0652 69.1327 30.1607 61.1164 34.0775 53.2966L33.6043 53.0596C29.5543 61.1453 32.5975 69.3846 37.4967 76.8654C39.9495 80.6106 42.8801 84.1855 45.6497 87.4786C48.4244 90.7779 51.0299 93.7858 52.8548 96.4171L53.2897 96.1154ZM59.6881 49.8979C60.1491 50.154 60.5877 50.4128 61.0178 50.706L61.3159 50.2686C60.8674 49.963 60.4135 49.6955 59.9451 49.4353L59.6881 49.8979ZM59.9451 49.4353C55.4596 46.9441 50.0541 45.5306 45.1819 45.8931C40.3032 46.2562 35.9355 48.4055 33.6043 53.0596L34.0775 53.2966C36.3042 48.8511 40.4758 46.774 45.2211 46.4209C49.973 46.0673 55.2764 47.4478 59.6881 49.8979L59.9451 49.4353Z" fill="black"/>
</g>
<path id="Vector 54" d="M81.2432 69.5268L73.5478 60.4669L62.3634 69.1782C60.5906 56.4109 46.3864 46.1174 40.8904 47.5426C26.1154 51.3745 42.8669 84.5353 53.554 89.3337C64.241 94.1322 81.2432 69.5268 81.2432 69.5268Z" fill="#EEEEEE" stroke="black" stroke-width="0.529231"/>
<path id="Vector 59" d="M74.2149 59.734L73.2381 60.7086L81.0578 69.7933L82.6541 68.2053C85.3308 65.5424 84.8996 61.0958 81.761 58.9969C79.3915 57.4123 76.2329 57.7209 74.2149 59.734Z" fill="#F5B9AB" stroke="black" stroke-width="0.52923" stroke-linejoin="round"/>
</g>
<g id="Union_2">
<path fill-rule="evenodd" clip-rule="evenodd" d="M35.1831 95.2901C35.0583 95.2578 34.9327 95.3495 34.9329 95.4784L34.993 129.973H28.0917C27.9868 129.973 27.9017 130.058 27.9017 130.163L27.9017 134.362C27.9017 134.467 27.9868 134.552 28.0917 134.552H47.7292C47.8342 134.552 47.9192 134.467 47.9192 134.362V130.163C47.9192 130.058 47.8342 129.973 47.7292 129.973H40.2312V95.2988C40.2312 95.1856 40.1329 95.0976 40.0204 95.1104C39.6442 95.1534 39.291 95.1979 38.9569 95.24C37.4201 95.4335 36.2876 95.5762 35.1831 95.2901Z" fill="#00ADB5"/>
<path d="M34.9329 95.4784L35.1976 95.478V95.478L34.9329 95.4784ZM35.1831 95.2901L35.1167 95.5463L35.1831 95.2901ZM34.993 129.973V130.237H35.2581L35.2577 129.972L34.993 129.973ZM27.9017 130.163H28.1663H27.9017ZM27.9017 134.362H27.6371H27.9017ZM40.2312 129.973H39.9666V130.237H40.2312V129.973ZM40.0204 95.1104L39.9904 94.8475L40.0204 95.1104ZM38.9569 95.24L38.9238 94.9774V94.9774L38.9569 95.24ZM35.1976 95.478C35.1976 95.5039 35.184 95.525 35.1693 95.536C35.1553 95.5464 35.136 95.5513 35.1167 95.5463L35.2494 95.0339C34.9676 94.961 34.6678 95.1658 34.6683 95.4789L35.1976 95.478ZM35.2577 129.972L35.1976 95.478L34.6683 95.4789L34.7284 129.973L35.2577 129.972ZM28.0917 130.237H34.993V129.708H28.0917V130.237ZM28.1663 130.163C28.1663 130.204 28.1329 130.237 28.0917 130.237V129.708C27.8407 129.708 27.6371 129.912 27.6371 130.163H28.1663ZM28.1663 134.362L28.1663 130.163H27.6371L27.6371 134.362H28.1663ZM28.0917 134.287C28.1329 134.287 28.1663 134.321 28.1663 134.362H27.6371C27.6371 134.613 27.8406 134.816 28.0917 134.816V134.287ZM47.7292 134.287H28.0917V134.816H47.7292V134.287ZM47.6546 134.362C47.6546 134.321 47.688 134.287 47.7292 134.287V134.816C47.9803 134.816 48.1839 134.613 48.1839 134.362H47.6546ZM47.6546 130.163V134.362H48.1839V130.163H47.6546ZM47.7292 130.237C47.688 130.237 47.6546 130.204 47.6546 130.163H48.1839C48.1839 129.912 47.9803 129.708 47.7292 129.708V130.237ZM40.2312 130.237H47.7292V129.708H40.2312V130.237ZM39.9666 95.2988V129.973H40.4959V95.2988H39.9666ZM40.0505 95.3733C40.0053 95.3785 39.9666 95.3431 39.9666 95.2988H40.4959C40.4959 95.0282 40.2604 94.8166 39.9904 94.8475L40.0505 95.3733ZM38.99 95.5025C39.3242 95.4604 39.676 95.4161 40.0505 95.3733L39.9904 94.8475C39.6124 94.8907 39.2578 94.9354 38.9238 94.9774L38.99 95.5025ZM35.1167 95.5463C36.2799 95.8475 37.4666 95.6944 38.99 95.5025L38.9238 94.9774C37.3735 95.1727 36.2953 95.3048 35.2494 95.0339L35.1167 95.5463Z" fill="black"/>
</g>
<path id="Vector 85" d="M27.0326 60.9087C31.5472 71.6695 23.0681 75.6123 23.1669 82.7655C23.3036 92.665 39.4483 102.217 49.552 81.533" stroke="black" stroke-width="0.529231"/>
<rect id="Rectangle 49" x="8.86557" y="40.1487" width="12.2983" height="39.7733" rx="5.9848" transform="rotate(-22.7603 8.86557 40.1487)" fill="#00ADB5" stroke="black" stroke-width="0.529231"/>
<rect id="Rectangle 51" x="120.025" y="80.7789" width="5.8875" height="53.7725" rx="0.189994" fill="#00ADB5" stroke="black" stroke-width="0.529231"/>
<rect id="Rectangle 50" x="76.0139" y="80.5346" width="19.7135" height="42.5676" rx="9.29235" transform="rotate(88.7489 76.0139 80.5346)" fill="#00ADB5" stroke="black" stroke-width="0.529231"/>
<rect id="Rectangle 52" x="156.261" y="70.4661" width="12.2983" height="66.8965" rx="5.9848" transform="rotate(88.7489 156.261 70.4661)" fill="#00ADB5" stroke="black" stroke-width="0.529231"/>
<rect id="Rectangle 53" x="146.598" y="38.2527" width="31.4" height="5.8875" rx="0.759975" transform="rotate(105 146.598 38.2527)" fill="#00ADB5" stroke="black" stroke-width="0.529231"/>
<rect id="Rectangle 54" x="108.318" y="65.5119" width="31.4" height="5.8875" rx="0.759975" fill="#EEEEEE" stroke="black" stroke-width="0.529231"/>
</g>
</g>
</svg>
