<svg width="196" height="195" viewBox="0 0 196 195" fill="none" xmlns="http://www.w3.org/2000/svg">
<g id="doodles mixed round">
<g id="glasses">
<path id="Vector 8" d="M57.4077 156.936C56.9125 157.009 56.3299 157.047 56.212 157.637C56.1206 158.094 56.1552 158.564 56.4291 158.961C56.8971 159.638 57.5925 160.034 58.43 159.894C59.1789 159.769 60.2074 159.091 60.2074 158.248C60.2074 157.773 59.8652 157.294 59.582 156.939C59.2785 156.558 59.0162 156.157 58.6342 155.845C58.1188 155.425 57.7026 155.383 57.2392 155.879C56.9856 156.15 56.7458 156.52 56.6348 156.876C56.5801 157.051 56.6203 157.191 56.6203 157.366C56.6203 157.6 56.5769 157.255 56.6203 157.14" stroke="#00ADB5" stroke-opacity="0.5" stroke-width="0.378328" stroke-linecap="round" stroke-linejoin="round"/>
<path id="Vector 9" d="M59.9739 158.274C60.3953 158.648 60.7525 158.987 61.4976 159.005C62.0193 159.018 62.5408 158.888 63.0297 158.748C63.3797 158.647 64.5019 158.116 63.5926 158.073" stroke="#00ADB5" stroke-opacity="0.5" stroke-width="0.378328" stroke-linecap="round" stroke-linejoin="round"/>
<path id="Vector 10" d="M64.32 155.011C63.7639 155.625 62.9964 156.828 63.2847 157.751C63.386 158.075 63.5333 158.293 63.7237 158.57C64.1071 159.128 64.7013 158.954 65.2402 158.809C65.631 158.703 66.0952 158.37 66.2448 157.992C66.4512 157.47 66.021 156.654 65.6615 156.294C65.2601 155.893 64.9422 155.404 64.495 155.053C64.376 154.959 64.2856 154.858 64.1304 154.893C63.956 154.931 63.8841 155.098 64.1158 155.098" stroke="#00ADB5" stroke-opacity="0.5" stroke-width="0.378328" stroke-linecap="round" stroke-linejoin="round"/>
</g>
<g id="glasses_2">
<path id="Vector 8_2" d="M103.632 70.8627C103.136 70.9359 102.554 70.9746 102.436 71.5642C102.344 72.0212 102.379 72.4915 102.653 72.8879C103.121 73.5653 103.816 73.9607 104.654 73.8211C105.403 73.6963 106.431 73.0177 106.431 72.175C106.431 71.6998 106.089 71.2215 105.806 70.8659C105.502 70.4847 105.24 70.084 104.858 69.7723C104.343 69.3519 103.926 69.3106 103.463 69.8063C103.21 70.0776 102.97 70.4476 102.859 70.8027C102.804 70.9778 102.844 71.1181 102.844 71.2936C102.844 71.5276 102.801 71.1826 102.844 71.0668" stroke="#00ADB5" stroke-opacity="0.5" stroke-width="0.378328" stroke-linecap="round" stroke-linejoin="round"/>
<path id="Vector 9_2" d="M106.198 72.2017C106.62 72.5758 106.977 72.9142 107.722 72.9325C108.244 72.9453 108.765 72.8151 109.254 72.6749C109.604 72.5746 110.726 72.0431 109.817 72.0001" stroke="#00ADB5" stroke-opacity="0.5" stroke-width="0.378328" stroke-linecap="round" stroke-linejoin="round"/>
<path id="Vector 10_2" d="M110.543 68.9379C109.987 69.5519 109.22 70.7552 109.508 71.6776C109.609 72.002 109.757 72.2204 109.947 72.4974C110.331 73.0551 110.925 72.8813 111.464 72.7356C111.854 72.63 112.319 72.2974 112.468 71.919C112.675 71.3969 112.244 70.5806 111.885 70.2211C111.484 69.8197 111.166 69.3314 110.718 68.98C110.599 68.8865 110.509 68.7851 110.354 68.8196C110.179 68.8584 110.108 69.0254 110.339 69.0254" stroke="#00ADB5" stroke-opacity="0.5" stroke-width="0.378328" stroke-linecap="round" stroke-linejoin="round"/>
</g>
<g id="keyboard">
<path id="Vector 75" d="M60.9788 53.0105C63.8339 51.6502 66.1419 49.4012 68.4627 47.2803C70.2867 45.6134 72.1996 43.9663 74.2126 42.5278C74.6098 42.244 75.171 41.6728 75.7079 41.9162C76.24 42.1575 76.5467 42.8143 76.9673 43.2033C78.0029 44.1611 78.9341 45.3316 79.7856 46.4572C80.7229 47.6963 79.3173 48.3822 78.4484 49.1934C77.4614 50.115 76.5188 51.0653 75.4406 51.8785C74.4159 52.6514 73.5925 53.7167 72.6543 54.5917C71.2246 55.9253 69.8873 57.345 68.4617 58.6799C67.613 59.4746 66.6393 60.1233 65.8221 60.9462C65.5357 61.2346 65.2709 61.6157 64.9406 61.8558C64.6754 62.0486 64.3083 61.307 64.2139 61.1674C63.4644 60.0589 62.3034 59.3006 61.5695 58.1411C61.1081 57.4121 60.7976 56.5125 60.2453 55.8467C59.9816 55.5289 59.3225 54.8136 59.6113 54.3493C59.9062 53.8753 60.7434 53.6482 61.2001 53.3087C61.5561 53.0441 61.9889 52.7174 62.3941 52.5334C62.6885 52.3996 62.9776 52.1626 63.241 51.98C63.934 51.4996 63.1996 51.705 62.7308 51.8835" stroke="#00ADB5" stroke-opacity="0.5" stroke-width="0.378328" stroke-linecap="round" stroke-linejoin="round"/>
<path id="Vector 76" d="M61.4154 55.1867C63.1535 56.2627 64.7126 57.8198 66.0695 59.3555C66.1038 59.3944 66.4341 59.6246 66.3837 59.7097C66.2865 59.8742 65.1584 59.1318 65.0506 59.0574" stroke="#00ADB5" stroke-opacity="0.5" stroke-width="0.378328" stroke-linecap="round" stroke-linejoin="round"/>
<path id="Vector 77" d="M63.1386 53.6312C64.5478 54.0347 65.3876 54.8025 66.5253 55.624C67.0321 55.9899 67.5483 56.3201 68.0032 56.7504C68.2168 56.9525 68.3689 57.2186 68.5663 57.4364C68.8368 57.7351 67.7321 57.0898 67.602 57.0154" stroke="#00ADB5" stroke-opacity="0.5" stroke-width="0.378328" stroke-linecap="round" stroke-linejoin="round"/>
<path id="Vector 78" d="M65.1859 52.4253C66.1721 53.3152 67.1633 54.1929 68.1804 55.0471C68.5667 55.3716 69.0054 55.6694 69.339 56.0516C69.9314 56.7301 69.1556 55.8497 68.8921 55.6012" stroke="#00ADB5" stroke-opacity="0.5" stroke-width="0.378328" stroke-linecap="round" stroke-linejoin="round"/>
<path id="Vector 79" d="M66.5669 51.577C67.2984 52.0217 68.0624 52.4526 68.6817 53.0522C68.9358 53.2982 69.1466 53.5881 69.4182 53.816C69.7528 54.0967 70.0459 54.4242 70.3827 54.697C70.8623 55.0855 70.9345 55.199 70.3647 54.7113" stroke="#00ADB5" stroke-opacity="0.5" stroke-width="0.378328" stroke-linecap="round" stroke-linejoin="round"/>
<path id="Vector 80" d="M68.3486 50.271C69.1556 50.9025 69.9025 51.5438 70.5772 52.3142C70.8761 52.6554 71.1169 53.0492 71.4962 53.311C71.8437 53.5508 72.0872 53.6201 71.6805 53.2304" stroke="#00ADB5" stroke-opacity="0.5" stroke-width="0.378328" stroke-linecap="round" stroke-linejoin="round"/>
<path id="Vector 81" d="M70.0632 48.9401C70.7737 49.474 71.4742 49.9613 72.0417 50.649C72.3016 50.9638 72.5067 51.3256 72.7968 51.6159C73.386 52.2055 72.9808 51.9083 72.5546 51.5081" stroke="#00ADB5" stroke-opacity="0.5" stroke-width="0.378328" stroke-linecap="round" stroke-linejoin="round"/>
<path id="Vector 82" d="M71.6455 47.5593C72.643 48.5135 73.4785 49.6312 74.4778 50.5738C75.1506 51.2084 74.1866 50.1914 74.0288 50.0108" stroke="#00ADB5" stroke-opacity="0.5" stroke-width="0.378328" stroke-linecap="round" stroke-linejoin="round"/>
<path id="Vector 83" d="M73.5763 46.4615C74.4159 46.1187 75.2869 45.71 75.7381 44.8723C75.8625 44.6413 76.0228 44.4402 76.074 44.1799C76.1442 43.8224 76.1305 43.9757 75.8655 44.2071" stroke="#00ADB5" stroke-opacity="0.5" stroke-width="0.378328" stroke-linecap="round" stroke-linejoin="round"/>
<path id="Vector 84" d="M74.9275 47.6144C75.5932 46.9967 76.3373 46.322 76.825 45.5379C77.0683 45.1468 77.5317 44.6694 76.8839 45.2351" stroke="#00ADB5" stroke-opacity="0.5" stroke-width="0.378328" stroke-linecap="round" stroke-linejoin="round"/>
<path id="Vector 85" d="M77.0618 48.9092C77.6683 48.2502 78.208 47.6372 78.7663 46.948C78.9466 46.7253 79.4962 46.4364 78.835 46.6131" stroke="#00ADB5" stroke-opacity="0.5" stroke-width="0.378328" stroke-linecap="round" stroke-linejoin="round"/>
<path id="Vector 86" d="M76.5796 48.5763C77.2145 48.0322 77.9324 47.3988 78.4355 46.7119C78.5697 46.5287 78.6729 46.3245 78.7958 46.1341C79.0017 45.8152 79.0147 45.9229 78.7025 45.9557" stroke="#00ADB5" stroke-opacity="0.5" stroke-width="0.378328" stroke-linecap="round" stroke-linejoin="round"/>
<path id="Vector 87" d="M63.1285 56.2858C66.2913 55.001 67.0717 51.5141 69.6491 49.5421C69.9626 49.3023 70.2173 49.0356 70.583 48.8696C70.8274 48.7585 71.1293 48.7054 71.3519 48.5633C71.4876 48.4766 72.6149 47.6155 71.8315 47.9712" stroke="#00ADB5" stroke-opacity="0.5" stroke-width="0.378328" stroke-linecap="round" stroke-linejoin="round"/>
<path id="Vector 88" d="M61.656 55.3532C62.0109 54.9216 62.3261 54.5522 62.7763 54.2401C62.8502 54.1889 62.9641 54.1803 63.0249 54.1119C63.1452 53.9764 63.3275 53.7784 63.3739 53.6037C63.5565 52.9156 64.4488 53.0429 64.9227 52.6979C65.3734 52.3696 65.8074 52.0374 66.2669 51.7131C66.7732 51.3559 67.0074 51.0425 67.4141 50.5848C67.7876 50.1643 68.1501 49.7389 68.5455 49.3408C68.8689 49.0152 69.3772 48.719 69.583 48.3021C69.8154 47.8317 70.4092 47.2933 70.9437 47.3805C71.1273 47.4105 72.4762 48.1921 71.5945 47.6923" stroke="#00ADB5" stroke-opacity="0.5" stroke-width="0.378328" stroke-linecap="round" stroke-linejoin="round"/>
<path id="Vector 89" d="M64.5188 57.0351C66.8955 55.7814 68.2145 53.0481 69.8198 50.9833C70.411 50.2228 71.256 49.7175 71.8749 48.9702C72.1397 48.6506 72.7243 48.3111 72.0444 48.3166" stroke="#00ADB5" stroke-opacity="0.5" stroke-width="0.378328" stroke-linecap="round" stroke-linejoin="round"/>
<path id="Vector 90" d="M65.367 57.8096C67.5205 56.4856 68.8995 54.0224 70.4663 52.0703C71.1791 51.1823 71.8671 50.2756 72.5887 49.3947C72.9177 48.9931 73.4913 48.7423 72.7552 49.1535" stroke="#00ADB5" stroke-opacity="0.5" stroke-width="0.378328" stroke-linecap="round" stroke-linejoin="round"/>
<path id="Vector 91" d="M66.215 59.1912C67.5588 57.8807 68.6438 56.4666 69.7433 54.9507C70.4119 54.029 70.9899 52.9929 71.7749 52.1629C72.2254 51.6868 72.5722 51.1291 72.9812 50.6243C73.1459 50.4209 73.2596 50.184 73.4289 49.9823C73.8103 49.528 73.5444 49.939 73.2788 50.1855" stroke="#00ADB5" stroke-opacity="0.5" stroke-width="0.378328" stroke-linecap="round" stroke-linejoin="round"/>
<path id="Vector 92" d="M66.5311 59.7653C67.1998 59.1102 68.1797 58.4797 68.6258 57.6299C68.7878 57.3214 69.1886 56.5765 69.4697 56.3877C69.8413 56.1382 70.0183 55.6073 70.2888 55.2734C70.5705 54.9257 70.8462 54.5864 71.1518 54.2557C71.4384 53.9455 71.5302 53.4012 71.885 53.1343C72.2802 52.837 72.4725 52.3768 72.7877 52.0219C73.0606 51.7147 73.5801 51.3963 73.9186 51.1616C74.1062 51.0316 74.2372 50.8544 74.4499 50.7578C74.8811 50.5619 74.6013 50.6622 74.2066 50.6474" stroke="#00ADB5" stroke-opacity="0.5" stroke-width="0.378328" stroke-linecap="round" stroke-linejoin="round"/>
<path id="Vector 93" d="M73.5219 46.707C74.0752 46.8528 74.7573 46.953 75.2614 47.2545C75.5868 47.449 75.8701 47.6444 75.2776 47.2901" stroke="#00ADB5" stroke-opacity="0.5" stroke-width="0.378328" stroke-linecap="round" stroke-linejoin="round"/>
<path id="Vector 94" d="M74.0959 45.7834C74.8851 45.9896 75.4428 46.2207 76.0864 46.6403C76.5071 46.9146 76.4396 46.8387 76.0013 46.5746" stroke="#00ADB5" stroke-opacity="0.5" stroke-width="0.378328" stroke-linecap="round" stroke-linejoin="round"/>
<path id="Vector 95" d="M75.053 44.8516C75.7307 45.2327 76.3881 45.6658 77.0889 45.9976C77.501 46.1928 77.2847 46.1791 76.9666 46.0255" stroke="#00ADB5" stroke-opacity="0.5" stroke-width="0.378328" stroke-linecap="round" stroke-linejoin="round"/>
<path id="Vector 96" d="M75.599 44.1072C76.3115 44.4317 76.9684 44.7548 77.6245 45.1629C77.9237 45.349 77.6521 45.361 77.4252 45.2104" stroke="#00ADB5" stroke-opacity="0.5" stroke-width="0.378328" stroke-linecap="round" stroke-linejoin="round"/>
<path id="Vector 97" d="M73.8719 46.3826C74.4103 45.7425 74.9503 45.1361 75.4405 44.48C75.5797 44.2936 76.4279 43.2559 76.0614 43.787" stroke="#00ADB5" stroke-opacity="0.5" stroke-width="0.378328" stroke-linecap="round" stroke-linejoin="round"/>
<path id="Vector 98" d="M74.4366 47.5062C75.137 46.887 76.1465 46.0613 76.3726 45.1362C76.4391 44.8639 76.5834 44.5918 76.7949 44.4045C77.0094 44.2145 77.2336 44.1287 76.9132 44.4489" stroke="#00ADB5" stroke-opacity="0.5" stroke-width="0.378328" stroke-linecap="round" stroke-linejoin="round"/>
<path id="Vector 99" d="M73.8751 47.4852C74.6221 46.6807 75.2604 46.14 75.6824 45.149C75.792 44.8917 75.9176 44.6784 76.0975 44.4758C76.2882 44.2612 76.5618 44.0602 76.1937 44.4444" stroke="#00ADB5" stroke-opacity="0.5" stroke-width="0.378328" stroke-linecap="round" stroke-linejoin="round"/>
<path id="Vector 100" d="M76.6503 47.8813C76.9943 48.0994 77.3391 48.3015 77.6966 48.4829C77.8442 48.5579 77.6616 48.4128 77.5988 48.3893" stroke="#00ADB5" stroke-opacity="0.5" stroke-width="0.378328" stroke-linecap="round" stroke-linejoin="round"/>
<path id="Vector 101" d="M77.3205 46.8041C77.3438 46.8238 78.6959 47.9824 78.4561 47.724" stroke="#00ADB5" stroke-opacity="0.5" stroke-width="0.378328" stroke-linecap="round" stroke-linejoin="round"/>
<path id="Vector 102" d="M78.1239 46.384C78.4221 46.671 79.3356 47.5102 79.014 47.2497" stroke="#00ADB5" stroke-opacity="0.5" stroke-width="0.378328" stroke-linecap="round" stroke-linejoin="round"/>
<path id="Vector 103" d="M76.2509 48.3389C76.7452 47.8786 77.8292 46.9667 78.0948 46.2592C78.1995 45.9803 78.6789 45.6221 78.2281 46.0054" stroke="#00ADB5" stroke-opacity="0.5" stroke-width="0.378328" stroke-linecap="round" stroke-linejoin="round"/>
<path id="Vector 104" d="M76.3135 48.4763C76.3605 48.5139 77.3059 49.5322 77.5075 49.0384C77.6104 48.7864 77.7444 48.4581 77.9968 48.3192C78.4397 48.0755 78.5214 47.3079 78.9748 47.1021C79.4891 46.8685 79.4411 46.4768 78.9621 46.3379C78.7739 46.2833 78.9224 45.9124 78.7269 45.9416C78.548 45.9682 78.4533 45.9022 78.2533 45.9389" stroke="#00ADB5" stroke-opacity="0.5" stroke-width="0.378328" stroke-linecap="round" stroke-linejoin="round"/>
<path id="Vector 105" d="M73.4595 46.5697C73.7837 47.1893 73.845 47.414 74.3682 47.6724C74.5094 47.7422 74.6938 47.6454 74.8009 47.6998C75.013 47.8075 75.4321 47.8097 75.5904 47.6143C75.9086 47.2214 76.0258 46.9679 76.5134 46.7289C76.8211 46.5781 77.0685 46.2223 77.2108 45.9274C77.3673 45.6033 77.6491 45.3591 77.8142 45.0338C77.8846 44.8952 77.3168 44.5384 77.3117 44.2988C77.3103 44.2308 76.6361 44.2288 76.524 44.1718C76.3881 44.1028 76.3258 44.0056 76.2606 43.862C76.1653 43.6523 75.9964 43.9127 75.7404 43.9326" stroke="#00ADB5" stroke-opacity="0.5" stroke-width="0.378328" stroke-linecap="round" stroke-linejoin="round"/>
<path id="Vector 106" d="M62.2306 54.4299C62.9965 54.721 63.6643 55.0964 64.3539 55.5118C64.9525 55.8724 65.629 56.0645 66.2238 56.4141C66.6473 56.663 67.0868 57.2311 67.3993 57.6042C67.5035 57.7286 67.5812 57.8449 67.6551 57.985C67.8245 58.3065 67.6482 57.5293 67.6303 57.4441" stroke="#00ADB5" stroke-opacity="0.5" stroke-width="0.378328" stroke-linecap="round" stroke-linejoin="round"/>
<path id="Vector 107" d="M69.6264 48.5866C69.8388 48.8096 70.6988 50.0406 70.5292 49.1153" stroke="#00ADB5" stroke-opacity="0.5" stroke-width="0.378328" stroke-linecap="round" stroke-linejoin="round"/>
</g>
<g id="food">
<path id="Vector 33" d="M71.3958 134.039C71.4869 134.508 71.7186 134.813 71.8982 135.239C72.0205 135.53 72.2491 135.754 72.3764 136.039C72.5139 136.347 72.7198 136.709 72.9116 136.983C73.0759 137.217 73.1836 137.44 73.391 137.647C73.7576 138.014 74.0349 138.451 74.4031 138.812C74.9384 139.337 75.8449 140.022 76.6247 139.979C76.8753 139.965 77.1526 140.043 77.3984 140.006C77.6092 139.974 77.8652 139.963 78.0764 140C78.4235 140.059 78.8001 139.999 79.1321 140.071C79.3113 140.11 79.5063 140.053 79.6878 140.087C79.923 140.13 80.1987 140.141 80.4384 140.141C81.2231 140.141 82.0057 140.136 82.7884 140.037C83.2124 139.983 83.6325 140.124 84.0523 140.049C84.4463 139.979 84.9711 140.052 85.3417 139.889C85.7971 139.69 86.2502 139.377 86.602 139.025C86.7785 138.849 86.9124 138.638 87.0318 138.42C87.1887 138.133 87.2761 137.824 87.4338 137.538C87.9837 136.541 88.2972 135.432 88.7425 134.393C88.8475 134.148 89.02 133.95 89.1457 133.723C89.1775 133.666 89.1919 133.593 89.2437 133.538C89.4379 133.333 89.066 133.311 88.8951 133.233" stroke="#00ADB5" stroke-opacity="0.5" stroke-width="0.378328" stroke-linecap="round" stroke-linejoin="round"/>
<path id="Vector 34" d="M71.3088 134.083C71.6982 133.574 72.0286 133.199 72.5945 132.911C73.0684 132.67 73.5599 132.383 73.988 132.069C74.646 131.585 75.5515 131.369 76.3525 131.224C77.2244 131.065 78.0826 130.88 78.97 130.88C79.2446 130.88 79.5163 130.962 79.7909 130.967C80.1196 130.972 80.4492 130.983 80.7764 131.01C81.2786 131.053 81.794 131.043 82.297 131.054C82.9987 131.069 83.6705 131.433 84.3721 131.489C84.7895 131.522 85.2762 131.584 85.6821 131.698C85.8341 131.741 86.0075 131.77 86.1494 131.839C86.3259 131.924 86.4497 132.069 86.6119 132.17C87.1354 132.496 87.7207 132.649 88.2863 132.897C88.4596 132.973 88.7577 133.102 88.9497 133.102C89.214 133.102 89.2003 133.59 89.2003 133.102" stroke="#00ADB5" stroke-opacity="0.5" stroke-width="0.378328" stroke-linecap="round" stroke-linejoin="round"/>
<path id="Vector 35" d="M89.1566 133.408C88.8334 133.841 88.603 134.006 88.1445 134.259C87.7845 134.457 87.3857 134.598 86.9822 134.672C86.6057 134.741 86.1944 134.795 85.8127 134.825C85.495 134.851 85.171 134.814 84.8466 134.851C84.1129 134.934 83.3726 135.124 82.6649 135.33C81.6547 135.625 80.6791 135.656 79.6358 135.713C78.4968 135.775 77.3547 135.688 76.2386 135.456C75.8622 135.378 75.4643 135.448 75.0812 135.433C74.6592 135.417 74.2457 135.3 73.8487 135.163C73.6816 135.106 73.5276 135.017 73.3523 134.977C73.1471 134.93 72.9385 134.948 72.7349 134.899C72.451 134.831 72.1197 134.707 71.8801 134.541C71.7759 134.469 71.6193 134.409 71.5375 134.3C71.5136 134.268 71.483 134.197 71.483 134.16C71.483 134.069 71.4091 134.092 71.5266 134.17" stroke="#00ADB5" stroke-opacity="0.5" stroke-width="0.378328" stroke-linecap="round" stroke-linejoin="round"/>
<path id="Vector 36" d="M79.7863 137.831C80.0515 137.802 80.402 137.807 80.2923 137.466C80.2571 137.356 80.1684 137.344 80.0744 137.313C79.7941 137.22 79.2923 137.401 79.187 137.693C78.9979 138.218 79.3557 138.786 79.9182 138.604C80.0712 138.554 80.3428 138.446 80.44 138.307C80.5568 138.14 80.3815 138.19 80.2657 138.027" stroke="#00ADB5" stroke-opacity="0.5" stroke-width="0.378328" stroke-linecap="round" stroke-linejoin="round"/>
<path id="Vector 37" d="M78.9804 137.265C79.4032 137.095 79.6195 137.025 80.047 137.025C80.2194 137.025 80.3056 137.013 80.4575 137.112C80.7084 137.276 80.7948 137.588 80.7686 137.863C80.7465 138.095 80.6698 138.412 80.5882 138.633C80.5276 138.796 80.3774 138.825 80.2238 138.855C80.0834 138.883 79.7773 138.805 79.6669 138.866C79.5497 138.931 79.191 138.953 79.1003 138.832C79.0168 138.721 78.9274 138.673 78.8666 138.538C78.8086 138.409 78.7825 138.286 78.7359 138.158C78.6719 137.982 78.5568 137.501 78.7952 137.395C78.9349 137.333 78.9947 137.296 79.1548 137.296C79.2002 137.296 79.2391 137.33 79.2855 137.33C79.3525 137.33 79.1564 137.286 79.0894 137.286" stroke="#00ADB5" stroke-opacity="0.5" stroke-width="0.378328" stroke-linecap="round" stroke-linejoin="round"/>
<path id="Vector 38" d="M79.7431 135.521C80.0505 135.124 80.331 134.714 80.6487 134.328C80.8194 134.12 81.0314 133.941 81.2153 133.743C81.742 133.174 82.2787 132.552 82.6803 131.887C83.0759 131.232 83.6157 130.519 84.2021 130.027C84.5118 129.767 84.7886 129.48 85.0581 129.181C85.3195 128.89 85.4399 128.484 85.6876 128.177C85.8794 127.94 87.135 126.322 87.3535 127.306C87.4394 127.692 87.0624 127.962 86.8257 128.199C86.557 128.468 86.2871 128.809 86.0581 129.114C85.8373 129.409 85.5691 129.667 85.3547 129.964C85.063 130.368 84.5323 130.657 84.3195 131.114C84.144 131.492 83.8528 131.795 83.6343 132.145C83.3314 132.629 82.9765 133.034 82.6197 133.478C82.337 133.829 81.8939 134.118 81.6936 134.519C81.5262 134.854 81.2295 134.995 80.9587 135.211C80.8408 135.306 80.6975 135.358 80.593 135.489C80.5583 135.532 80.4961 135.582 80.4635 135.533C80.4449 135.506 80.374 135.568 80.3872 135.599C80.4337 135.707 80.3207 135.338 80.3097 135.303" stroke="#00ADB5" stroke-opacity="0.5" stroke-width="0.378328" stroke-linecap="round" stroke-linejoin="round"/>
<path id="Vector 39" d="M79.5686 135.63C79.6522 135.673 80.1788 136.072 80.1788 135.75C80.1788 135.653 80.3041 135.49 80.3483 135.391C80.3817 135.315 80.0808 135.387 80.036 135.445C79.9774 135.52 79.8639 135.581 80.0481 135.587C80.1895 135.591 80.3001 135.53 80.4076 135.446C80.4385 135.422 80.8543 135.488 80.4839 135.478C80.2869 135.472 80.0955 135.478 79.9064 135.478C79.7429 135.478 80.0742 135.434 80.1219 135.434C80.16 135.434 79.8457 135.621 79.7914 135.56C79.7782 135.545 79.7553 135.504 79.8084 135.478" stroke="#00ADB5" stroke-opacity="0.5" stroke-width="0.378328" stroke-linecap="round" stroke-linejoin="round"/>
<path id="Vector 40" d="M72.638 134.018C72.6626 134.031 73.4414 134.439 73.4444 134.388C73.4479 134.327 73.4045 134.274 73.4347 134.214C73.5664 133.95 73.737 134.077 73.9637 134.179C74.1407 134.258 73.8722 133.377 74.4057 133.749C74.6813 133.941 74.7548 133.911 74.7095 133.588C74.6752 133.344 74.7596 133.343 74.9698 133.369C75.1127 133.386 75.2151 133.418 75.2967 133.282C75.3957 133.117 75.5072 133.023 75.7096 133.094C75.8773 133.153 76.0263 133.319 76.1418 133.107C76.1926 133.014 76.1497 132.735 76.3101 132.789C76.4106 132.822 76.543 132.954 76.6575 132.912C76.7443 132.881 76.811 132.612 76.9094 132.655C77.0119 132.699 77.1165 132.894 77.2459 132.847C77.3084 132.825 77.4243 132.62 77.3016 132.645" stroke="#00ADB5" stroke-opacity="0.5" stroke-width="0.378328" stroke-linecap="round" stroke-linejoin="round"/>
<path id="Vector 41" d="M75.7106 133.625C75.9807 133.845 76.9924 135.019 77.2893 134.142C77.3425 133.985 77.351 133.674 77.5 133.932C77.6228 134.144 77.8077 134.291 78.0085 134.09C78.1415 133.957 78.2008 133.731 78.3911 133.662C78.5657 133.598 78.6939 133.926 78.839 133.734C78.9561 133.58 78.8994 133.314 78.7276 133.221C78.6713 133.19 78.6555 133.295 78.6308 133.32" stroke="#00ADB5" stroke-opacity="0.5" stroke-width="0.378328" stroke-linecap="round" stroke-linejoin="round"/>
<path id="Vector 42" d="M78.0424 132.274C78.4633 132.202 78.9934 132.055 79.3136 132.432C79.462 132.607 79.448 132.83 79.3499 133.028C79.2783 133.172 79.0855 133.244 78.9625 133.103C78.8616 132.986 79.0697 132.795 79.1441 132.724C79.3992 132.48 79.7773 132.87 79.8572 133.134C79.9239 133.355 79.3206 133.866 79.3935 133.647" stroke="#00ADB5" stroke-opacity="0.5" stroke-width="0.378328" stroke-linecap="round" stroke-linejoin="round"/>
<path id="Vector 43" d="M85.125 133.015C85.2501 132.972 86.0542 132.713 85.8998 133.141C85.8206 133.361 85.5176 133.478 85.3187 133.55C85.2246 133.584 84.9817 133.579 85.1395 133.441C85.2761 133.323 85.4686 133.267 85.648 133.282C86.3473 133.338 85.3694 134.142 85.1686 134.253C84.7784 134.468 84.2476 134.694 83.8392 134.432" stroke="#00ADB5" stroke-opacity="0.5" stroke-width="0.378328" stroke-linecap="round" stroke-linejoin="round"/>
<path id="Vector 44" d="M80.8321 131.729C80.998 131.999 81.1976 132.27 81.3393 132.554C81.3881 132.651 81.177 132.402 81.1275 132.304C81.1143 132.279 81.0235 131.993 81.0149 131.995C80.9087 132.018 80.8838 132.504 80.8551 132.594C80.7193 133.018 80.3838 132.856 80.0548 132.824C79.6565 132.785 79.4783 133.178 79.2582 133.429C79.082 133.63 79.0128 133.691 79.1323 133.93C79.2289 134.124 79.2691 134.311 79.1323 134.486C79.0255 134.623 78.8917 134.709 78.763 134.821C78.645 134.925 78.8142 134.908 78.7921 134.846C78.7316 134.676 78.3585 134.712 78.2363 134.72C77.7828 134.75 77.3208 134.636 76.8755 134.664C76.639 134.679 76.4163 134.811 76.1818 134.846C75.9437 134.881 76.2585 135.088 76.3477 135.147C76.5012 135.249 76.0471 134.929 75.8803 134.851C75.6006 134.718 75.3423 134.616 75.1975 134.323C75.0524 134.029 74.9246 133.829 74.6793 133.613C74.5948 133.539 74.5848 133.426 74.6261 133.325C74.7218 133.092 74.934 132.902 75.1443 132.775" stroke="#00ADB5" stroke-opacity="0.5" stroke-width="0.378328" stroke-linecap="round" stroke-linejoin="round"/>
<path id="Vector 45" d="M80.7882 132.601C80.2419 132.22 79.7912 132.056 79.1489 131.969C78.9231 131.939 78.6823 131.783 78.5351 131.61C78.4044 131.456 78.4785 131.497 78.3244 131.705C78.114 131.99 77.9577 131.734 77.6888 131.809C77.2767 131.924 76.923 132.307 76.5048 132.378C76.3902 132.398 76.4179 132.206 76.2747 132.289C76.0337 132.428 75.8494 132.559 75.5677 132.604C75.3973 132.63 75.0744 132.743 75.1004 132.95" stroke="#00ADB5" stroke-opacity="0.5" stroke-width="0.378328" stroke-linecap="round" stroke-linejoin="round"/>
<path id="Vector 46" d="M84.4927 132.601C85.0199 132.652 85.5539 132.646 86.0787 132.702C86.2635 132.722 86.358 132.796 86.488 132.917C86.6052 133.026 86.7882 133.283 86.9565 133.297C87.1991 133.318 87.3244 133.217 87.5509 133.146C87.6873 133.104 88.1224 133.146 87.9795 133.146" stroke="#00ADB5" stroke-opacity="0.5" stroke-width="0.378328" stroke-linecap="round" stroke-linejoin="round"/>
<path id="Vector 47" d="M84.1007 133.19C83.5341 133.563 83.2314 134.129 82.6249 134.469C82.5048 134.537 82.1372 134.667 82.1649 134.888C82.1849 135.048 83.4126 134.547 83.5995 134.453" stroke="#00ADB5" stroke-opacity="0.5" stroke-width="0.378328" stroke-linecap="round" stroke-linejoin="round"/>
<path id="Vector 48" d="M86.2152 133.712C86.5233 133.942 86.789 134.27 87.1741 134.153C87.2783 134.122 87.4964 134.109 87.5664 134.039" stroke="#00ADB5" stroke-opacity="0.5" stroke-width="0.378328" stroke-linecap="round" stroke-linejoin="round"/>
</g>
<g id="clock">
<path id="Vector 108" d="M162.373 124.212C160.782 124.518 159.625 124.977 158.616 126.274C157.977 127.096 158.117 128.39 158.536 129.261C159.226 130.696 160.922 131.507 162.453 131.578C164.236 131.66 166.715 131.136 167.081 129.009C167.277 127.869 166.187 126.791 165.678 125.856C165.263 125.096 164.638 124.07 163.765 123.748C163.408 123.617 162.581 123.663 162.321 124.018C162.206 124.176 162.056 124.344 161.972 124.522C161.904 124.666 161.977 124.154 161.961 124.006" stroke="#00ADB5" stroke-opacity="0.5" stroke-width="0.378328" stroke-linecap="round" stroke-linejoin="round"/>
<path id="Vector 109" d="M163.043 128.13C162.613 128.35 161.916 128.497 162.293 128.98C162.378 129.09 162.501 129.084 162.605 128.98C162.694 128.891 163.143 128.424 162.811 128.313C162.134 128.087 162.382 129.437 162.865 128.84C163.125 128.519 162.761 128.203 162.436 128.399C162.048 128.632 162.355 129.038 162.659 128.685C162.888 128.419 162.705 128.215 162.456 128.465C162.232 128.688 162.459 129.045 162.679 128.742C162.905 128.432 162.647 128.17 162.376 128.442C162.061 128.757 162.402 128.723 162.625 128.516C162.85 128.307 162.451 128.338 162.321 128.502C162.02 128.882 162.492 128.828 162.567 128.502C162.679 128.023 162.184 129.124 162.424 128.284" stroke="#00ADB5" stroke-opacity="0.5" stroke-width="0.378328" stroke-linecap="round" stroke-linejoin="round"/>
<path id="Vector 110" d="M161.29 126.532C161.748 127.136 162.217 127.709 162.602 128.313C162.708 128.481 162.623 128.649 162.682 128.645C162.899 128.633 163.121 128.594 163.352 128.594C163.881 128.594 164.297 128.336 164.807 128.336C165.424 128.336 166.33 128.176 165.311 127.666" stroke="#00ADB5" stroke-opacity="0.5" stroke-width="0.378328" stroke-linecap="round" stroke-linejoin="round"/>
<path id="Vector 111" d="M160.775 124.161C160.678 123.674 160.208 122.492 161.084 122.617C161.398 122.662 161.609 122.988 161.794 123.193C162.275 123.728 162.224 124.373 161.445 124.419C161.241 124.431 160.953 124.835 160.723 124.548C160.462 124.222 160.729 124.244 160.775 123.852C160.805 123.595 160.637 123.617 160.566 123.365C160.51 123.172 160.625 122.96 160.672 122.821" stroke="#00ADB5" stroke-opacity="0.5" stroke-width="0.378328" stroke-linecap="round" stroke-linejoin="round"/>
<path id="Vector 112" d="M161.084 123.594C161.079 123.717 160.89 124.826 161.293 124.645C161.428 124.584 161.545 124.496 161.599 124.356C161.652 124.22 161.596 124.139 161.536 124.006C161.383 123.665 160.937 123.134 161.073 123.903C161.158 124.389 161.7 124.275 161.743 123.811C161.775 123.457 161.328 122.983 161.044 123.388C160.843 123.674 161.201 124.305 161.41 123.863C161.517 123.639 161.262 123.068 160.992 123.348C160.715 123.634 161.132 124.24 161.405 123.995C161.675 123.753 161.491 123.014 161.199 123.296C160.931 123.554 161.332 124.067 161.536 123.674C161.764 123.236 161.263 122.906 161.107 123.365C160.968 123.775 161.402 124.215 161.502 123.657C161.578 123.232 160.798 123.006 160.798 123.514C160.798 123.982 161.216 123.934 161.216 123.508C161.216 123.064 160.769 123.164 160.955 123.537C161.141 123.909 161.391 123.248 161.181 123.038C160.937 122.794 160.613 123.172 160.901 123.408C161.097 123.568 161.366 122.902 161.035 122.778C160.75 122.671 160.908 123.253 161.007 123.121C161.16 122.917 160.925 122.78 161.087 122.821C161.229 122.856 161.576 122.933 161.674 123.058C161.751 123.157 162.063 123.709 162.063 123.852C162.063 124.289 161.394 124.525 161.01 124.416C160.734 124.337 160.652 124.532 160.749 124.467C160.983 124.311 161.032 123.903 161.032 124.058" stroke="#00ADB5" stroke-opacity="0.5" stroke-width="0.378328" stroke-linecap="round" stroke-linejoin="round"/>
<path id="Vector 113" d="M161.033 131.532C160.767 132.095 160.532 132.66 160.219 133.192C160.149 133.312 160.017 133.557 160.002 133.696C159.96 134.072 160.338 132.8 160.414 132.614" stroke="#00ADB5" stroke-opacity="0.5" stroke-width="0.378328" stroke-linecap="round" stroke-linejoin="round"/>
<path id="Vector 114" d="M166.239 130.449C166.892 131.273 167.612 131.861 168.12 132.766C168.17 132.855 168.257 132.926 168.327 132.995C168.558 133.226 167.897 132.501 167.682 132.253" stroke="#00ADB5" stroke-opacity="0.5" stroke-width="0.378328" stroke-linecap="round" stroke-linejoin="round"/>
</g>
<g id="python">
<path id="Vector 159" d="M123.002 82.3902C123.41 83.9307 124.986 89.6576 125.363 91.7499C126.401 97.5112 124.772 89.6499 124.768 92.1944" stroke="#00ADB5" stroke-opacity="0.5" stroke-width="0.756655" stroke-linecap="round" stroke-linejoin="round"/>
<path id="Vector 160" d="M120.235 84.8807C120.096 82.5365 119.57 79.2828 122.857 79.6178C124.403 79.7754 126.107 80.6933 127.071 81.9213C128.561 83.8191 127.775 86.7607 126.165 88.271C125.308 89.0748 124.477 89.4775 123.356 89.7814C121.456 90.2962 122.955 87.6581 123.261 86.9348" stroke="#00ADB5" stroke-opacity="0.5" stroke-width="0.756655" stroke-linecap="round" stroke-linejoin="round"/>
<path id="Vector 161" d="M128.785 87.7454C132.051 87.5708 135.057 86.9278 136.226 90.4698C136.905 92.5283 137.732 95.0293 137.166 97.1987C136.654 99.1588 135.553 100.384 133.538 99.5492C130.66 98.3561 130.664 96.1095 132.231 93.8693C132.807 93.0445 135.017 91.3927 135.018 90.4283" stroke="#00ADB5" stroke-opacity="0.5" stroke-width="0.756655" stroke-linecap="round" stroke-linejoin="round"/>
<path id="Vector 162" d="M134.672 83.923C134.56 84.7823 134.559 90.8615 132.913 90.9199C132.605 90.9308 132.346 91.0913 132.076 91.2254C131.04 91.7413 131.67 91.2772 132.057 90.7403C132.933 89.5244 134.707 89.9736 135.595 88.3599C136.56 86.6075 137.004 85.7455 135.621 84.3898C134.652 83.4397 135.078 81.8236 134.315 84.1007" stroke="#00ADB5" stroke-opacity="0.5" stroke-width="0.756655" stroke-linecap="round" stroke-linejoin="round"/>
<path id="Vector 163" d="M139.492 78.4062C140.754 81.2481 141.908 84.9489 143.933 87.4226C144.468 88.0764 144.768 87.5074 144.76 86.9982C144.75 86.3549 144.568 85.7059 144.382 85.0967" stroke="#00ADB5" stroke-opacity="0.5" stroke-width="0.756655" stroke-linecap="round" stroke-linejoin="round"/>
<path id="Vector 164" d="M135.827 85.7962C137.83 85.0082 142.748 84.2107 143.586 81.7097" stroke="#00ADB5" stroke-opacity="0.5" stroke-width="0.756655" stroke-linecap="round" stroke-linejoin="round"/>
<path id="Vector 165" d="M141.987 78.4992C150.668 93.6832 142.21 83.0112 146.623 80.2342C149.301 78.5486 149.525 86.4932 150.267 83.0566" stroke="#00ADB5" stroke-opacity="0.5" stroke-width="0.756655" stroke-linecap="round" stroke-linejoin="round"/>
<path id="Vector 166" d="M149.74 77.977C150.055 78.9188 151.112 85.1351 153.315 83.715C154.299 83.0801 155.446 81.8694 155.636 80.6793C155.84 79.4022 155.042 76.1581 153.237 76.5074C152.413 76.6668 151.035 76.7053 150.498 77.4882C149.978 78.2449 149.65 80.0171 150.274 78.1561" stroke="#00ADB5" stroke-opacity="0.5" stroke-width="0.756655" stroke-linecap="round" stroke-linejoin="round"/>
<path id="Vector 167" d="M155.89 76.472C158.352 74.8915 161.245 74.3726 161.62 78.0948C161.667 78.5619 161.676 79.1503 161.89 79.5803C162.138 80.079 161.628 78.3613 161.145 78.0842" stroke="#00ADB5" stroke-opacity="0.5" stroke-width="0.756655" stroke-linecap="round" stroke-linejoin="round"/>
<path id="Vector 168" d="M155.71 77.8974C155.821 79.8432 155.543 82.4789 156.452 84.3042C156.483 84.3665 156.699 84.8427 156.59 84.5816C156.375 84.0654 156.286 83.7147 155.88 83.1548" stroke="#00ADB5" stroke-opacity="0.5" stroke-width="0.756655" stroke-linecap="round" stroke-linejoin="round"/>
</g>
<g id="javascript init">
<path id="Vector 148" d="M93.4043 95.5113C93.0633 98.6738 93.6579 108.41 88.2865 107.805C87.1666 107.678 86.1494 107.491 85.6175 106.436C85.0605 105.331 84.5997 104.37 84.5442 103.115C84.4761 101.574 85.0897 100.846 86.336 100.151C86.7732 99.9067 85.8339 100.894 85.7507 100.99C85.203 101.619 87.0614 100.852 87.7718 100.695" stroke="#00ADB5" stroke-opacity="0.5" stroke-width="0.756655" stroke-linecap="round" stroke-linejoin="round"/>
<path id="Vector 149" d="M100.3 97.0308C97.5832 97.2849 93.7484 97.8002 93.3101 101.199C93.0724 103.042 95.8133 103.266 97.003 103.894C99.0471 104.973 100.598 108.491 98.3053 110.04C96.7108 111.117 95.5049 110.544 93.9538 110.652C92.3784 110.761 93.4753 110.18 94.4095 110.021" stroke="#00ADB5" stroke-opacity="0.5" stroke-width="0.756655" stroke-linecap="round" stroke-linejoin="round"/>
</g>
<g id="html">
<path id="Vector 143" d="M115.021 13.3534C114.804 15.5353 114.671 17.7395 114.402 19.9162C114.376 20.1256 114.17 20.9524 114.414 20.284C114.592 19.7953 114.534 19.2859 114.821 18.8225C115.215 18.1842 116.997 15.7526 117.834 15.9986C119.511 16.4915 117.818 19.6025 117.338 20.4939C117.172 20.8014 116.721 21.4683 116.955 21.8131C117.266 22.2727 117.842 20.5741 117.867 20.5221" stroke="#00ADB5" stroke-opacity="0.5" stroke-width="0.756655" stroke-linecap="round" stroke-linejoin="round"/>
<path id="Vector 144" d="M121.645 14.7862C121.447 15.761 119.777 20.5726 121.386 21.3696C121.84 21.5945 122.844 21.1699 123.156 20.8039C123.481 20.4228 123.311 19.8392 123.276 19.3969" stroke="#00ADB5" stroke-opacity="0.5" stroke-width="0.756655" stroke-linecap="round" stroke-linejoin="round"/>
<path id="Vector 145" d="M118.335 14.8913C120.1 15.4162 121.915 15.7657 123.669 16.3072C124.083 16.4351 124.238 16.493 124.461 16.8623C124.808 17.4367 123.887 16.912 123.728 16.738" stroke="#00ADB5" stroke-opacity="0.5" stroke-width="0.756655" stroke-linecap="round" stroke-linejoin="round"/>
<path id="Vector 146" d="M126.318 18.3018C125.913 19.5248 125.532 20.7632 125.069 21.9668C124.977 22.2061 124.964 22.2936 124.914 22.1108C124.866 21.9348 124.82 21.831 124.898 21.6451C125.314 20.6569 126.283 19.2367 127.198 18.6847C128.186 18.0887 127.647 20.0908 127.514 20.4961C127.365 20.9512 126.964 22.1988 127.42 20.9916C127.692 20.2732 128.315 18.4878 129.366 18.7476C130.002 18.905 129.855 19.7655 129.743 20.2205C129.535 21.0596 129.329 21.8931 129.121 22.735C128.817 23.9652 128.981 23.3008 129.204 22.4018" stroke="#00ADB5" stroke-opacity="0.5" stroke-width="0.756655" stroke-linecap="round" stroke-linejoin="round"/>
<path id="Vector 147" d="M134.164 15.6237C133.53 17.9043 132.752 20.1783 132.206 22.4826C132.141 22.7528 132.002 23.7535 132.432 23.8726C132.841 23.9859 134.456 23.0156 134.061 22.6792" stroke="#00ADB5" stroke-opacity="0.5" stroke-width="0.756655" stroke-linecap="round" stroke-linejoin="round"/>
</g>
<g id="react">
<path id="Vector 153" d="M24.3948 108.649C22.8954 111.497 21.4008 114.348 19.8973 117.195C19.4688 118.006 18.623 120.488 18.5183 119.577C18.3763 118.341 19.1314 116.61 19.4519 115.452C19.9041 113.818 20.8249 110.552 23.1194 110.564C24.8514 110.573 26.7986 113.113 27.0672 114.698C27.2568 115.817 27.8083 114.553 28.5568 114.216" stroke="#00ADB5" stroke-opacity="0.5" stroke-width="0.756655" stroke-linecap="round" stroke-linejoin="round"/>
<path id="Vector 154" d="M29.043 117.775C30.0506 120.118 31.5359 124.08 34.5946 121.9C36 120.899 35.3016 119.185 33.9142 118.641C30.514 117.307 26.2297 121.032 25.3817 124.094C24.5339 127.155 27.8806 128.093 30.1828 128.396C31.4567 128.563 31.171 127.474 32.2671 127.095" stroke="#00ADB5" stroke-opacity="0.5" stroke-width="0.756655" stroke-linecap="round" stroke-linejoin="round"/>
<path id="Vector 155" d="M37.511 125.877C34.8697 124.774 31.3704 123.791 29.8819 127.166C29.1645 128.793 32.3754 128.984 33.3277 128.939C35.1467 128.854 39.1971 124.643 37.8324 125.849C36.6349 126.907 35.423 128.156 34.9306 129.718C34.6126 130.727 34.9778 132.957 36.1478 131.417" stroke="#00ADB5" stroke-opacity="0.5" stroke-width="0.756655" stroke-linecap="round" stroke-linejoin="round"/>
<path id="Vector 156" d="M47.7824 127.989C43.9488 128.357 39.4053 128.549 38.0453 132.856C37.3766 134.974 38.9453 136.446 40.8354 137.067C42.1563 137.502 43.5027 136.559 44.3041 135.603" stroke="#00ADB5" stroke-opacity="0.5" stroke-width="0.756655" stroke-linecap="round" stroke-linejoin="round"/>
<path id="Vector 157" d="M51.2645 128.573C51.0543 128.829 41.6109 139.121 46.1123 139.201C47.3586 139.223 48.6378 138.498 49.4962 137.682" stroke="#00ADB5" stroke-opacity="0.5" stroke-width="0.756655" stroke-linecap="round" stroke-linejoin="round"/>
<path id="Vector 158" d="M43.2649 130.446C45.0781 131.696 46.8657 133.02 48.8545 133.987C49.371 134.238 50.2318 134.357 50.5874 134.878C50.7871 135.17 50.473 134.476 50.4381 134.375" stroke="#00ADB5" stroke-opacity="0.5" stroke-width="0.756655" stroke-linecap="round" stroke-linejoin="round"/>
</g>
<g id="node">
<path id="Vector 169" d="M23.041 48.0391C24.5626 50.6413 29.3946 58.2329 27.433 55.9441C26.1791 54.4812 25.2267 52.5396 24.4316 50.809C23.5974 48.9929 22.814 45.7523 25.9932 45.9168C28.7218 46.058 29.811 48.8444 30.291 51.1284C30.5028 52.136 30.5568 52.9187 31.0088 53.8352C31.4709 54.7723 31.4965 51.1619 31.6722 50.2251" stroke="#00ADB5" stroke-opacity="0.5" stroke-width="0.756655" stroke-linecap="round" stroke-linejoin="round"/>
<path id="Vector 170" d="M32.872 42.7469C32.9569 43.1406 34.2722 52.1391 36.1812 50.4084C36.985 49.6797 37.1616 47.8836 37.2648 46.8996C37.5874 43.8241 36.2882 43.4443 34.1291 42.7934C33.0991 42.4829 32.888 42.497 32.6052 43.5573C32.0244 45.7347 32.9399 45.1229 34.1131 43.9121" stroke="#00ADB5" stroke-opacity="0.5" stroke-width="0.756655" stroke-linecap="round" stroke-linejoin="round"/>
<path id="Vector 171" d="M41.1727 40.2086C40.112 41.9961 38.7595 44.0988 39.5057 46.2883C39.8152 47.1965 40.5351 46.9565 41.0394 46.4453C41.8351 45.6384 42.25 44.3123 42.2057 43.2043C42.1209 41.0802 40.7903 39.2626 39.3942 37.7534C39.2007 37.5441 37.4375 36.0906 37.7827 37.3386C38.4029 39.5802 40.129 41.7364 41.3318 43.6846C43.3142 46.8956 43.9222 45.6487 44.8127 42.6345" stroke="#00ADB5" stroke-opacity="0.5" stroke-width="0.756655" stroke-linecap="round" stroke-linejoin="round"/>
<path id="Vector 172" d="M45.0011 40.7641C45.6593 41.3779 50.8537 45.0883 51.0149 41.7972C51.0295 41.4986 50.6489 41.4054 50.5234 41.151C50.2001 40.4953 49.6645 40.0628 49.373 39.7189" stroke="#00ADB5" stroke-opacity="0.5" stroke-width="0.756655" stroke-linecap="round" stroke-linejoin="round"/>
<path id="Vector 173" d="M45.4339 42.9941C43.3771 40.2933 40.5041 37.4853 43.4493 34.8152C44.6903 33.6902 47.2648 34.5798 47.1975 36.4595C47.1661 37.3351 46.9814 39.4999 45.7241 39.7285C45.0593 39.8494 44.7529 39.414 45.3678 38.8058" stroke="#00ADB5" stroke-opacity="0.5" stroke-width="0.756655" stroke-linecap="round" stroke-linejoin="round"/>
<path id="Vector 174" d="M50.1301 31.7927C51.4597 32.6388 60.9352 38.2383 55.972 40.6859C55.1985 41.0673 54.5179 40.1783 54.1067 39.6063C53.1798 38.3169 55.8801 36.4877 55.9927 35.1219" stroke="#00ADB5" stroke-opacity="0.5" stroke-width="0.756655" stroke-linecap="round" stroke-linejoin="round"/>
<path id="Vector 175" d="M57.9066 27.2912C57.1328 27.9233 52.6934 31.8492 56.1843 32.6082C58.1126 33.0275 59.9352 31.106 61.4007 30.147C63.7615 28.6019 64.2599 31.575 63.6112 33.2531C63.2139 34.2807 59.8972 37.6439 60.8048 34.9702" stroke="#00ADB5" stroke-opacity="0.5" stroke-width="0.756655" stroke-linecap="round" stroke-linejoin="round"/>
</g>
<g id="css">
<path id="Vector 150" d="M84.1077 173.415C81.1542 174.901 77.2843 177.611 80.4771 181.207C82.0087 182.932 84.836 182.225 86.8529 182.026C87.4195 181.97 88.9831 182.515 88.5575 182.137C87.6368 181.319 86.9742 181.371 86.6979 179.99" stroke="#00ADB5" stroke-opacity="0.5" stroke-width="0.756655" stroke-linecap="round" stroke-linejoin="round"/>
<path id="Vector 151" d="M92.8746 172.419C92.8746 174.596 92.8543 176.154 95.0884 177.001C96.0531 177.367 96.6588 177.702 96.9148 178.783C97.2042 180.005 96.3518 181.775 95.343 182.458C94.0957 183.303 92.529 183.598 91.1257 183.023C89.9239 182.53 91.2523 181.948 91.8784 181.384" stroke="#00ADB5" stroke-opacity="0.5" stroke-width="0.756655" stroke-linecap="round" stroke-linejoin="round"/>
<path id="Vector 152" d="M102.637 170.028C102.246 171.546 100.479 175.607 102.051 177.178C102.685 177.813 103.914 177.46 104.696 177.643C105.475 177.825 106.143 178.421 106.622 179.038C107.382 180.014 106.659 181.495 105.781 182.181C104.419 183.247 102.474 182.779 100.889 182.779C100.023 182.779 100.614 182.718 101.044 182.181" stroke="#00ADB5" stroke-opacity="0.5" stroke-width="0.756655" stroke-linecap="round" stroke-linejoin="round"/>
</g>
<g id="expres">
<path id="Vector 176" d="M99.2024 151.132C100.737 150.546 103.585 149.614 105.069 148.564C106.636 147.456 104.995 147.137 104.161 147.402C102.749 147.851 101.895 149.331 101.416 150.634C100.155 154.066 104.166 157.946 107.537 157.552C110.653 157.189 111.088 155.663 111.555 153.324" stroke="#00ADB5" stroke-opacity="0.5" stroke-width="0.756655" stroke-linecap="round" stroke-linejoin="round"/>
<path id="Vector 177" d="M113.548 149.339C113.199 149.908 109.883 156.735 108.965 153.524" stroke="#00ADB5" stroke-opacity="0.5" stroke-width="0.756655" stroke-linecap="round" stroke-linejoin="round"/>
<path id="Vector 178" d="M107.372 149.539C108.771 151.409 112.151 158.095 115.541 157.907C116.033 157.879 115.381 155.987 115.342 155.715" stroke="#00ADB5" stroke-opacity="0.5" stroke-width="0.756655" stroke-linecap="round" stroke-linejoin="round"/>
<path id="Vector 179" d="M116.537 149.539C117.309 154.066 118.858 167.75 117.976 163.242C117.521 160.918 113.368 148.341 117.024 148.863C118.609 149.09 122.656 151.403 121.595 153.523C120.999 154.716 117.304 155.132 118.928 154.32" stroke="#00ADB5" stroke-opacity="0.5" stroke-width="0.756655" stroke-linecap="round" stroke-linejoin="round"/>
<path id="Vector 180" d="M124.108 152.726C124.6 155.288 125.074 157.848 125.503 160.419C125.576 160.86 125.478 160.497 125.348 160.253C124.533 158.725 123.417 156.002 123.455 154.287C123.491 152.663 125.726 151.555 126.898 152.726" stroke="#00ADB5" stroke-opacity="0.5" stroke-width="0.756655" stroke-linecap="round" stroke-linejoin="round"/>
<path id="Vector 181" d="M130.484 155.715C130.433 157.59 131.793 164.154 135.023 162.246C135.486 161.972 136.627 161.304 136.661 160.696C136.679 160.372 136.089 160.297 135.864 160.297C135.272 160.297 135.124 159.563 134.868 159.102" stroke="#00ADB5" stroke-opacity="0.5" stroke-width="0.756655" stroke-linecap="round" stroke-linejoin="round"/>
<path id="Vector 182" d="M129.488 156.313C131.233 154.507 133.196 152.02 134.746 155.239C135.2 156.181 135.042 157.317 134.668 158.261C134.065 159.786 131.906 160.387 132.477 158.106" stroke="#00ADB5" stroke-opacity="0.5" stroke-width="0.756655" stroke-linecap="round" stroke-linejoin="round"/>
<path id="Vector 183" d="M140.247 152.726C141.613 154.908 147.135 160.791 143.512 163.474C142.353 164.333 141.597 164.329 140.291 164.282C138.449 164.216 139.422 163.749 140.048 162.29" stroke="#00ADB5" stroke-opacity="0.5" stroke-width="0.756655" stroke-linecap="round" stroke-linejoin="round"/>
<path id="Vector 184" d="M148.615 151.929C148.202 152.428 142.875 157.579 146.113 158.128C147.307 158.33 148.404 157.607 149.5 158.338C151.478 159.657 151.01 161.445 149.19 162.567C148.281 163.127 147.266 163.421 146.312 163.884C145.773 164.145 146.348 163.388 146.423 163.087" stroke="#00ADB5" stroke-opacity="0.5" stroke-width="0.756655" stroke-linecap="round" stroke-linejoin="round"/>
<path id="Vector 185" d="M144.032 149.738C143.57 150.078 138.588 152.842 139.295 154.52C140.186 156.636 140.48 154.031 140.645 153.125" stroke="#00ADB5" stroke-opacity="0.5" stroke-width="0.756655" stroke-linecap="round" stroke-linejoin="round"/>
</g>
<g id="macbook">
<path id="Vector 3" d="M21.5735 84.5621C22.4609 82.4697 22.0975 80.6465 22.0975 78.478C22.0975 78.0562 22.0209 76.7713 22.4642 76.5413C23.1633 76.1786 23.8166 75.9366 24.6415 75.9366C25.1899 75.9366 25.7408 75.9524 26.289 75.9366C26.8372 75.9208 27.3682 75.6978 27.9103 75.6314C28.9188 75.5078 29.9677 75.6799 30.9637 75.6799C31.7544 75.6799 32.5724 75.7826 33.333 75.7826C33.4681 75.7826 34.0186 75.8469 34.1073 75.9252C34.3788 76.1646 34.301 76.5486 34.5148 76.7581" stroke="#00ADB5" stroke-opacity="0.5" stroke-width="0.378328" stroke-linecap="round" stroke-linejoin="round"/>
<path id="Vector 4" d="M34.4633 76.9435C34.4978 77.561 34.5107 78.4274 34.7648 79.0308C34.9294 79.4218 34.7981 79.9421 34.8314 80.3585C34.8954 81.1579 34.7764 81.937 34.7764 82.7126C34.7764 83.7529 34.8285 84.7799 34.8285 85.8145C34.8285 86.7026 33.9609 86.5539 33.2747 86.4291C32.6819 86.3213 31.8864 86.5374 31.2685 86.5451C30.0766 86.5598 28.8791 86.6494 27.6853 86.6494C26.6883 86.6494 25.948 86.3599 25.0298 86.0117C24.5396 85.8257 24.2432 85.8667 23.7166 85.8667C23.2178 85.8667 22.8076 85.7887 22.3077 85.945C22.0151 86.0364 21.4913 85.9575 21.3249 85.658C21.1254 85.2988 21.522 85.1431 21.522 84.8491C21.522 84.6023 21.491 83.8965 21.5742 84.5621" stroke="#00ADB5" stroke-opacity="0.5" stroke-width="0.378328" stroke-linecap="round" stroke-linejoin="round"/>
<path id="Vector 6" d="M27.523 78.3002C27.523 78.3002 27.7317 78.4046 27.9404 78.6133C28.1492 78.7699 28.5885 78.6916 28.958 78.6916C29.1524 78.6916 29.3577 78.5401 29.532 78.4626C29.8851 78.3057 29.6745 78.6008 29.59 78.7699C29.4964 78.957 29.6033 79.3049 29.7726 79.4222C30.052 79.6156 30.3285 79.4487 30.6017 79.312C30.7152 79.2553 30.684 79.229 30.7192 79.3062C30.7668 79.411 30.7583 79.563 30.7583 79.6773C30.7583 79.9374 30.7412 80.3696 30.6017 80.5963C30.4183 80.8944 30.2329 81.0874 29.9379 81.3065C29.6464 81.5231 29.2613 81.9008 28.8739 81.9008C28.1169 81.9008 27.3133 81.7359 26.9345 80.9992C26.7739 80.687 26.4793 80.4314 26.4793 80.0744C26.4793 79.7767 26.3808 79.4198 26.4793 79.1352C26.5988 78.7901 26.8968 78.4626 26.7924 78.4626C26.8456 78.4778 27.3142 78.1959 27.523 78.3002Z" stroke="#00ADB5" stroke-opacity="0.5" stroke-width="0.378328" stroke-linecap="round" stroke-linejoin="round"/>
<path id="Vector 7" d="M28.3837 78.1175C28.6773 78.0089 29.3478 77.7812 29.5057 77.4261C29.6276 77.1517 29.2245 77.1 29.0099 77.1C28.7497 77.1 28.4414 77.4596 28.3722 77.687C28.3337 77.8135 28.2971 77.943 28.2591 78.0712C28.2408 78.133 28.2652 78.1778 28.2779 78.235C28.2876 78.2785 28.6857 78.0695 28.6707 78.0096" stroke="#00ADB5" stroke-opacity="0.5" stroke-width="0.378328" stroke-linecap="round" stroke-linejoin="round"/>
<path id="Vector 71" d="M33.6566 83.9868L22.1032 84.2406C20.881 84.2674 19.9042 85.2659 19.9042 86.4884C19.9042 87.7301 20.9108 88.7367 22.1525 88.7367H33.7064C34.9601 88.7367 35.9764 87.7204 35.9764 86.4667V86.2563C35.9764 84.9831 34.9295 83.9589 33.6566 83.9868Z" stroke="#00ADB5" stroke-opacity="0.5" stroke-width="0.378328"/>
<path id="Vector 72" d="M24.6335 84.1777C24.8068 84.4464 24.9564 84.7689 25.1553 85.0175C25.2553 85.1425 25.2393 85.1171 25.4332 85.0453C25.7569 84.9254 26.1236 85.0113 26.4613 85.0113C26.7578 85.0113 27.1025 84.8565 27.3906 84.9341C27.7245 85.024 28.118 84.8524 28.4466 84.8446C28.8425 84.8352 29.2199 84.8724 29.6136 84.8724C29.851 84.8724 30.0824 84.7334 30.3021 84.7334C30.4296 84.7334 30.793 84.8345 30.8023 84.6007C30.8069 84.4868 30.8579 84.3762 30.8579 84.261C30.8579 84.1054 30.7647 84.1728 30.6078 84.0943" stroke="#00ADB5" stroke-opacity="0.5" stroke-width="0.378328" stroke-linecap="round" stroke-linejoin="round"/>
</g>
<path id="Vector 67" d="M81.1637 27.1371C81.378 26.8647 81.7885 26.3606 81.2132 26.2715C81.0831 26.2514 80.9615 26.1749 80.8339 26.2328C80.4406 26.411 80.0752 26.8034 80.0752 27.27C80.0752 28.0153 80.8925 28.1767 81.4863 28.167C82.488 28.1507 82.7928 27.1747 83.1466 26.3841C83.504 25.5855 83.901 24.7998 84.2718 24.0069C84.6914 23.1097 85.3796 22.395 85.8149 21.506C86.0016 21.1248 86.2453 20.7891 86.4856 20.441C86.8585 19.9011 87.1243 19.3564 87.3909 18.7578C87.6097 18.2666 87.8523 17.8181 88.1203 17.3532C88.2287 17.1652 88.188 16.8772 88.3952 17.0782C88.5526 17.2308 88.8029 17.3311 89.0146 17.3698C89.9404 17.5394 90.7918 17.7188 91.7452 17.643C92.7095 17.5663 93.6732 17.4282 94.6224 17.2443C94.9451 17.1818 94.8076 17.2571 94.6554 17.4529C94.3973 17.785 94.177 18.137 93.9297 18.4735C93.6072 18.9124 93.4937 19.441 93.303 19.9427C93.0932 20.4942 92.8436 21.0211 92.6432 21.5817C92.2559 22.6651 91.691 23.6531 90.992 24.5624C90.5869 25.0894 90.0865 26.0098 89.328 25.9725C88.1542 25.9148 88.9468 23.6042 89.5076 23.1523C89.8095 22.9091 90.1397 23.1709 90.1765 23.4975C90.2271 23.9461 90.0732 24.5609 89.6377 24.7802C89.1782 25.0116 88.826 24.9838 89.1796 24.3871C89.3935 24.026 89.5207 24.4234 89.6084 24.2468" stroke="#00ADB5" stroke-opacity="0.5" stroke-width="0.756655" stroke-linecap="round" stroke-linejoin="round"/>
<path id="Vector 187" d="M169.628 107.631C169.842 107.358 170.253 106.854 169.678 106.765C169.547 106.745 169.426 106.669 169.298 106.726C168.905 106.905 168.539 107.297 168.539 107.764C168.539 108.509 169.357 108.67 169.951 108.661C170.952 108.644 171.257 107.668 171.611 106.878C171.968 106.079 172.365 105.293 172.736 104.501C173.156 103.603 173.844 102.889 174.279 102C174.466 101.618 174.71 101.283 174.95 100.935C175.323 100.395 175.589 99.8501 175.855 99.2514C176.074 98.7603 176.317 98.3117 176.585 97.8469C176.693 97.6589 176.652 97.3709 176.86 97.5719C177.017 97.7245 177.267 97.8247 177.479 97.8635C178.405 98.033 179.256 98.2124 180.21 98.1366C181.174 98.06 182.138 97.9218 183.087 97.738C183.409 97.6755 183.272 97.7507 183.12 97.9465C182.862 98.2787 182.641 98.6307 182.394 98.9672C182.072 99.4061 181.958 99.9346 181.767 100.436C181.558 100.988 181.308 101.515 181.108 102.075C180.72 103.159 180.155 104.147 179.456 105.056C179.051 105.583 178.551 106.503 177.792 106.466C176.619 106.408 177.411 104.098 177.972 103.646C178.274 103.403 178.604 103.665 178.641 103.991C178.691 104.44 178.538 105.055 178.102 105.274C177.643 105.505 177.29 105.477 177.644 104.881C177.858 104.52 177.985 104.917 178.073 104.74" stroke="#00ADB5" stroke-opacity="0.5" stroke-width="0.756655" stroke-linecap="round" stroke-linejoin="round"/>
<g id="lightbulb">
<path id="Vector 55" d="M160.169 60.6784C159.187 58.8984 159.244 58.3899 159.468 56.5982C159.592 55.6116 159.639 54.6476 159.889 53.6769C160.335 51.9411 160.48 49.6036 159.082 48.206C156.332 45.456 151.211 49.367 152.761 52.856C153.352 54.1839 154.371 55.167 155.108 56.4196C155.404 56.9219 155.569 57.4664 155.953 57.9358C156.321 58.3859 156.779 58.9461 156.779 59.5051C156.779 59.9772 156.638 60.5894 156.972 61.0068C157.433 61.5834 157.269 61.2868 157.952 61.2868C158.422 61.2868 159.114 60.9137 159.493 60.6108C159.763 60.3946 159.908 61.02 159.908 60.4177C159.908 59.9006 159.741 60.3308 160.082 60.3308" stroke="#00ADB5" stroke-opacity="0.5" stroke-width="0.378328" stroke-linecap="round" stroke-linejoin="round"/>
<path id="Vector 56" d="M157.996 62.3299C158.925 62.0527 161.498 61.4339 160.903 62.1995C160.184 63.1232 159.877 62.6603 158.995 62.8562C158.544 62.9564 158.105 64.3478 158.604 64.3772C159.317 64.4191 159.79 63.4598 160.516 63.4598C161.177 63.4598 161.13 64.3297 160.734 64.6379C160.21 65.045 159.608 64.6075 159.256 65.2415C158.699 66.2435 160.22 66.0805 160.652 65.8451C161.086 65.6079 161.5 65.2376 161.82 65.0242" stroke="#00ADB5" stroke-opacity="0.5" stroke-width="0.378328" stroke-linecap="round" stroke-linejoin="round"/>
<path id="Vector 57" d="M160.169 60.3963C160.157 60.472 160.145 60.983 159.941 60.983C159.831 60.983 159.78 60.9163 159.68 60.9721C159.562 61.0377 159.451 61.192 159.338 61.2823C159.239 61.3619 158.944 61.3521 158.887 61.4513C158.794 61.6135 158.606 61.7022 158.431 61.7217C158.203 61.747 158.119 61.8613 157.876 61.8074C157.802 61.791 157.795 61.7435 157.726 61.7435C157.618 61.7435 157.572 61.7947 157.491 61.7048C157.402 61.6054 157.256 61.5588 157.213 61.4079C157.154 61.2026 156.939 61.0947 157.257 61.222" stroke="#00ADB5" stroke-opacity="0.5" stroke-width="0.378328" stroke-linecap="round" stroke-linejoin="round"/>
<path id="Vector 58" d="M155.975 51.7914C156.364 51.7935 156.685 51.8185 156.817 52.2308C156.908 52.5113 156.909 52.7869 156.909 53.0782C156.909 53.3614 156.735 53.589 156.735 53.8556C156.735 54.208 157.017 54.1503 157.256 54.2576C157.481 54.359 157.644 54.4437 157.766 54.6704C157.887 54.895 157.796 55.3293 157.779 55.5734C157.765 55.7835 157.666 56.2299 157.811 56.4075C157.89 56.504 158.321 56.653 158.039 56.4413" stroke="#00ADB5" stroke-opacity="0.5" stroke-width="0.378328" stroke-linecap="round" stroke-linejoin="round"/>
<path id="Vector 59" d="M152.694 55.7241C152.382 55.9309 152.065 56.1042 151.717 56.2348C151.571 56.2895 151.379 56.3871 151.412 56.1587" stroke="#00ADB5" stroke-opacity="0.5" stroke-width="0.378328" stroke-linecap="round" stroke-linejoin="round"/>
<path id="Vector 60" d="M151.564 52.7258C151.012 52.8586 150.464 53.0083 149.917 53.1556C149.826 53.1801 150.035 52.9501 150.043 52.9431" stroke="#00ADB5" stroke-opacity="0.5" stroke-width="0.378328" stroke-linecap="round" stroke-linejoin="round"/>
<path id="Vector 61" d="M151.412 49.8793C150.841 49.7963 150.271 49.6932 149.703 49.592C149.441 49.5454 149.33 49.5797 149.478 49.3578" stroke="#00ADB5" stroke-opacity="0.5" stroke-width="0.378328" stroke-linecap="round" stroke-linejoin="round"/>
<path id="Vector 62" d="M154.497 46.8589C154.046 46.7796 153.654 46.7031 153.246 46.4992C153.055 46.4037 152.872 46.2889 152.672 46.2118C152.434 46.1203 152.429 46.1481 152.693 45.9897" stroke="#00ADB5" stroke-opacity="0.5" stroke-width="0.378328" stroke-linecap="round" stroke-linejoin="round"/>
<path id="Vector 63" d="M158.431 44.9034C158.497 45.3646 158.475 45.6408 158.288 46.0587C158.188 46.2839 158.103 46.5687 158.053 46.8119C158.036 46.8957 158.026 46.9434 157.97 47.0063C157.949 47.0298 158.026 46.75 158.04 46.7069" stroke="#00ADB5" stroke-opacity="0.5" stroke-width="0.378328" stroke-linecap="round" stroke-linejoin="round"/>
<path id="Vector 64" d="M161.755 46.7505C161.611 47.2308 161.405 47.6915 161.282 48.1725C161.219 48.4159 161.258 48.4307 161.364 48.1846" stroke="#00ADB5" stroke-opacity="0.5" stroke-width="0.378328" stroke-linecap="round" stroke-linejoin="round"/>
<path id="Vector 65" d="M163.145 50.2051C162.652 50.6324 162.247 51.1628 161.863 51.6875C161.815 51.7532 161.76 51.7766 161.706 51.8299C161.585 51.9511 161.794 51.6775 161.82 51.6392" stroke="#00ADB5" stroke-opacity="0.5" stroke-width="0.378328" stroke-linecap="round" stroke-linejoin="round"/>
</g>
<g id="apis">
<path id="Vector 188" d="M52.5073 93.7917C53.2297 97.046 54.0432 100.308 54.5211 103.611C54.788 105.457 54.2019 102.794 54.129 102.417C53.9713 101.602 53.7904 100.88 53.7904 100.047C53.7904 98.3697 53.7455 96.6738 53.6211 94.9946C53.534 93.8192 52.0902 90.3193 53.9152 93.2392C55.7759 96.2165 57.0897 99.5081 58.3527 102.756C58.5267 103.203 58.7678 103.628 58.9586 104.057C59.0628 104.291 57.1097 102.382 56.3567 101.972" stroke="#00ADB5" stroke-opacity="0.5" stroke-width="0.756655" stroke-linecap="round" stroke-linejoin="round"/>
<path id="Vector 189" d="M51.3844 101.009C53.4696 100.177 58.0675 98.6079 59.404 96.269C59.9639 95.2891 59.8549 95.7422 58.2813 96.0373" stroke="#00ADB5" stroke-opacity="0.5" stroke-width="0.756655" stroke-linecap="round" stroke-linejoin="round"/>
<path id="Vector 190" d="M57.6395 90.1028C59.2487 93.2884 60.4142 96.6804 60.8562 100.216C60.8972 100.544 60.9733 100.904 61.2037 101.134C61.2465 101.177 60.4319 99.6522 60.2057 99.2451" stroke="#00ADB5" stroke-opacity="0.5" stroke-width="0.756655" stroke-linecap="round" stroke-linejoin="round"/>
<path id="Vector 191" d="M57.6395 89.9424C58.8873 90.6899 63.4706 93.4506 60.482 95.2086C60.2197 95.3629 59.9122 95.5054 59.7246 95.7522C59.3274 96.2747 59.2795 96.4281 59.5642 95.7165" stroke="#00ADB5" stroke-opacity="0.5" stroke-width="0.756655" stroke-linecap="round" stroke-linejoin="round"/>
<path id="Vector 192" d="M61.8095 88.3385C62.341 91.9396 63.2531 95.8965 63.2531 99.5659C63.2531 100.376 63.1176 98.8757 62.9323 98.4432" stroke="#00ADB5" stroke-opacity="0.5" stroke-width="0.756655" stroke-linecap="round" stroke-linejoin="round"/>
<path id="Vector 193" d="M65.4993 94.7542C66.3798 97.3793 66.8327 98.926 64.2518 99.6907C63.3699 99.952 64.4355 98.6711 64.6617 98.5145C65.4338 97.98 66.2025 96.2594 65.3389 95.3958C64.9953 95.0522 64.1729 95.4862 63.931 95.075C63.5745 94.4689 64.3735 93.3214 64.8577 93.0255C66.2503 92.1745 66.0751 93.3738 65.4993 92.9899" stroke="#00ADB5" stroke-opacity="0.5" stroke-width="0.756655" stroke-linecap="round" stroke-linejoin="round"/>
</g>
<g id="aws">
<path id="Vector 194" d="M113.68 46.0455C114.211 48.8429 116.4 57.0115 115.127 54.4646C114.989 54.1902 114.875 53.9576 114.864 53.6461C114.821 52.4942 114.735 51.2899 114.337 50.1966C114.005 49.2821 114.074 48.334 114.074 47.361C114.074 47.166 113.743 45.6322 113.775 45.6216C114.109 45.51 115.491 47.1886 115.741 47.4779C117.004 48.9413 118.28 50.623 119.183 52.3379C119.647 53.2205 119.787 53.5367 118.678 53.6753" stroke="#00ADB5" stroke-opacity="0.5" stroke-width="0.756655" stroke-linecap="round" stroke-linejoin="round"/>
<path id="Vector 195" d="M113.548 51.702C114.783 51.0756 115.959 50.5751 117.232 50.1234" stroke="#00ADB5" stroke-opacity="0.5" stroke-width="0.756655" stroke-linecap="round" stroke-linejoin="round"/>
<path id="Vector 196" d="M117.1 46.177C118.364 48.0704 119.568 50.0853 121.039 51.8336C121.249 52.0829 121.689 52.5359 121.689 51.9505C121.689 51.1518 121.247 50.3263 121.046 49.568C120.725 48.3551 120.426 47.1366 120.155 45.9139C119.892 44.7336 120.077 45.1743 120.52 46.0601C121.254 47.528 122.027 48.865 123.049 50.1673C123.737 51.0447 123.809 50.5561 123.809 49.7873C123.809 48.3907 123.127 47.2423 122.625 45.987C122.088 44.6461 122.124 42.8157 121.514 41.5948C121.277 41.12 121.244 42.6247 121.178 43.1514" stroke="#00ADB5" stroke-opacity="0.5" stroke-width="0.756655" stroke-linecap="round" stroke-linejoin="round"/>
<path id="Vector 197" d="M124.204 41.4413C124.237 41.5958 124.727 45.4257 125.592 44.9931C125.971 44.8036 126.064 44.2236 126.455 44.0284C127.087 43.7122 127.771 44.2722 128.019 44.8177C128.674 46.26 127.92 47.9305 126.732 48.808C125.088 50.0236 125.651 47.8352 125.651 47.2294" stroke="#00ADB5" stroke-opacity="0.5" stroke-width="0.756655" stroke-linecap="round" stroke-linejoin="round"/>
<path id="Vector 198" d="M124.993 41.1779C124.757 41.8248 124.326 44.8283 124.197 43.6627C124.117 42.9432 124.259 42.3961 124.336 41.7041C124.518 40.0625 125.774 41.3831 125.257 40.5202" stroke="#00ADB5" stroke-opacity="0.5" stroke-width="0.756655" stroke-linecap="round" stroke-linejoin="round"/>
</g>
<g id="goland">
<path id="Vector 199" d="M116.22 127.584C116.176 127.503 114.278 124.235 114.443 124.141C114.67 124.011 115.095 124.137 115.363 124.037C116.155 123.74 116.793 123.127 117.445 122.62C118.13 122.087 119.07 126.27 119.278 127.151C119.531 128.217 120.188 129.634 118.958 130.25C117.849 130.804 116.39 130.637 115.179 130.61C113.204 130.566 111.839 127.324 111.608 125.71C111.441 124.535 109.814 120.764 111.56 120.01C112.028 119.808 112.822 119.946 113.33 119.946C114.056 119.946 114.689 119.513 115.427 119.513C116.602 119.513 116.957 120.98 115.932 119.369" stroke="#00ADB5" stroke-opacity="0.5" stroke-width="0.756655" stroke-linecap="round" stroke-linejoin="round"/>
<path id="Vector 200" d="M119.534 120.522C119.739 121.268 120.397 125.41 122.128 124.349C122.457 124.147 122.697 123.658 122.817 123.308C123.135 122.376 123.203 121.597 122.488 120.883C121.953 120.348 120.92 119.255 120.143 119.225C118.215 119.151 119.915 121.311 119.678 120.955" stroke="#00ADB5" stroke-opacity="0.5" stroke-width="0.756655" stroke-linecap="round" stroke-linejoin="round"/>
<path id="Vector 201" d="M119.822 113.893C121.246 116.144 123.393 118.619 124.258 121.211C124.368 121.541 124.372 121.766 124.578 122.076C124.889 122.542 125.036 123.219 125.33 122.508C125.757 121.477 126.728 120.563 127.492 119.77C128.434 118.791 128.563 119.081 126.883 119.081" stroke="#00ADB5" stroke-opacity="0.5" stroke-width="0.756655" stroke-linecap="round" stroke-linejoin="round"/>
<path id="Vector 202" d="M129.766 113.173C129.587 113.577 126.872 118.949 129.494 117.728C130.015 117.485 130.547 117.107 130.479 116.487C130.412 115.889 129.913 115.42 129.654 114.902C129.508 114.609 128.923 113.2 129.125 113.605C129.727 114.809 130.536 116.953 131.431 117.848C132.474 118.891 133.1 117.795 132.072 117.208" stroke="#00ADB5" stroke-opacity="0.5" stroke-width="0.756655" stroke-linecap="round" stroke-linejoin="round"/>
<path id="Vector 203" d="M131.351 113.749C135.363 120.112 130.287 112.973 131.456 111.724C132.586 110.515 133.922 112.836 134.346 113.573C135.083 114.857 135.809 118.187 134.666 114.758" stroke="#00ADB5" stroke-opacity="0.5" stroke-width="0.756655" stroke-linecap="round" stroke-linejoin="round"/>
<path id="Vector 204" d="M136.395 108.273C136.327 108.513 134.175 114.568 135.786 114.005C136.471 113.766 137.159 113.225 137.524 112.604C137.945 111.888 138.141 110.905 137.836 110.114C137.628 109.575 137.402 108.999 137.115 108.497C136.433 107.304 138.271 110.992 138.821 112.252C139.625 114.097 141.563 120.566 136.995 119.281C135.003 118.721 136.879 115.622 136.683 115.622" stroke="#00ADB5" stroke-opacity="0.5" stroke-width="0.756655" stroke-linecap="round" stroke-linejoin="round"/>
</g>
<g id="gutiar">
<path id="Vector 205" d="M79.6762 78.4984C80.3922 78.3015 81.0029 78.1032 81.5063 77.5368C81.7049 77.3134 81.7319 77.0283 81.8334 76.7576C81.9652 76.406 81.8011 75.9565 81.6886 75.6191C81.5987 75.3492 82.0903 75.1979 82.2659 75.1865C82.5675 75.1671 82.7982 75.3589 83.0881 75.376C83.4364 75.3965 83.808 75.5081 84.0496 75.7799C84.2136 75.9644 84.4332 76.0079 84.6144 76.1678C84.7865 76.3196 84.9224 76.5845 85.0469 76.779C85.4069 77.3415 85.5087 77.9979 85.6135 78.6413C85.6637 78.95 85.694 79.2858 85.6421 79.5975C85.5801 79.9697 85.646 80.3274 85.4991 80.6842C85.3976 80.9308 85.2351 81.2572 85.004 81.4027C84.7668 81.552 84.5463 81.6058 84.4857 81.9156C84.3591 82.5629 84.684 83.1966 84.559 83.8495C84.448 84.4292 83.6814 84.5181 83.2078 84.6108C82.8807 84.6749 82.2862 84.775 81.971 84.6037C81.384 84.2847 80.9588 83.8856 80.5233 83.3776C80.1375 82.9275 79.9917 82.2694 79.9407 81.694C79.8886 81.1066 79.8882 80.4687 79.9014 79.8746C79.9101 79.4804 80.0248 79.0845 80.0622 78.6914C80.0928 78.3697 80.1948 78.3439 80.03 78.7557" stroke="#00ADB5" stroke-opacity="0.5" stroke-width="0.378328" stroke-linecap="round" stroke-linejoin="round"/>
<path id="Vector 206" d="M83.8266 75.5709C84.0686 74.947 84.3347 74.3235 84.5201 73.68C84.6034 73.3909 84.6234 73.0847 84.7274 72.8024C84.8483 72.4744 84.908 72.1035 84.9598 71.7604C84.9969 71.5144 85.0151 71.0789 85.2404 70.924C85.4048 70.811 85.4985 70.5523 85.6747 70.4164C85.9009 70.2419 86.2222 70.0794 86.3824 69.8463C86.5398 69.6173 86.7079 69.1442 86.5755 68.8794C86.5019 68.7323 86.512 68.5737 86.4396 68.429C86.3454 68.2405 86.2608 68.0877 86.1894 67.8839C86.1269 67.7054 85.9309 67.3493 86.159 67.2226C86.7174 66.9124 86.756 67.4006 86.9293 67.8463C87.0189 68.0765 87.0324 68.3576 87.1152 68.597C87.1719 68.7608 87.2724 68.6424 87.3494 68.7364C87.4652 68.878 87.471 69.0551 87.5585 69.2082C87.6894 69.4374 87.5356 69.9025 87.4691 70.1269C87.346 70.5423 87.2192 70.9181 87.0366 71.3172C86.5664 72.3446 85.7999 73.2097 85.2743 74.2054C85.0743 74.5844 84.9142 74.9661 84.8168 75.385C84.7614 75.6233 84.5987 75.85 84.5987 76.1017C84.5987 76.3314 84.5419 76.4491 84.6631 76.0856" stroke="#00ADB5" stroke-opacity="0.5" stroke-width="0.378328" stroke-linecap="round" stroke-linejoin="round"/>
<path id="Vector 207" d="M86.3361 67.8176C85.9264 67.8804 85.4796 67.9045 85.1136 68.0875C85.0633 68.1127 85.1414 68.0471 85.1779 68.0428C85.6684 67.9851 86.204 67.5477 86.6506 67.3351C86.9828 67.1769 87.4371 66.8203 87.8159 66.8203C87.9257 66.8203 87.4515 67.1259 87.3977 67.1742" stroke="#00ADB5" stroke-opacity="0.5" stroke-width="0.378328" stroke-linecap="round" stroke-linejoin="round"/>
<path id="Vector 208" d="M85.9177 68.5254C86.3736 68.2605 87.1676 67.973 87.5012 67.5281C87.5337 67.4849 87.5576 67.4265 87.6049 67.3995C87.7705 67.3048 87.4777 67.4103 87.4297 67.4316" stroke="#00ADB5" stroke-opacity="0.5" stroke-width="0.378328" stroke-linecap="round" stroke-linejoin="round"/>
<path id="Vector 209" d="M86.2394 68.9436C86.7866 68.7341 87.7866 68.548 88.0874 67.9463C88.1309 67.8594 88.0344 67.8819 87.9766 67.8819" stroke="#00ADB5" stroke-opacity="0.5" stroke-width="0.378328" stroke-linecap="round" stroke-linejoin="round"/>
<path id="Vector 210" d="M86.8188 68.8793C86.7839 69.6169 86.7913 70.3672 86.3702 70.999C86.1647 71.3072 86.0223 71.5121 85.9502 71.873C85.873 72.2586 85.7884 72.5806 85.6124 72.9328C85.4386 73.2802 85.2349 73.5644 85.0637 73.8979C84.9749 74.0708 84.7564 74.2374 84.7992 74.4448C84.8207 74.5496 84.7687 74.6437 84.7348 74.7415C84.6343 75.0319 84.4463 75.2879 84.2701 75.5387C84.1505 75.7089 84.152 76.0145 84.3094 75.6995" stroke="#00ADB5" stroke-opacity="0.5" stroke-width="0.378328" stroke-linecap="round" stroke-linejoin="round"/>
<path id="Vector 211" d="M84.2126 74.8307C84.503 74.8937 84.9445 75.088 85.2421 75.088C85.2476 75.088 84.9892 74.7761 84.9525 74.7342" stroke="#00ADB5" stroke-opacity="0.5" stroke-width="0.378328" stroke-linecap="round" stroke-linejoin="round"/>
<path id="Vector 212" d="M84.4057 73.512C84.8163 73.6872 85.2276 73.861 85.6354 74.0428C85.7309 74.0854 85.7254 74.0917 85.6926 74.0589C85.6219 73.9882 85.5619 73.9117 85.4995 73.8337" stroke="#00ADB5" stroke-opacity="0.5" stroke-width="0.378328" stroke-linecap="round" stroke-linejoin="round"/>
<path id="Vector 213" d="M84.7922 72.643C85.2868 72.7968 85.7806 72.9623 86.281 73.097C86.3371 73.1121 86.4154 73.1422 86.3614 73.0863C86.2536 72.9747 86.1295 72.8761 86.0147 72.7717" stroke="#00ADB5" stroke-opacity="0.5" stroke-width="0.378328" stroke-linecap="round" stroke-linejoin="round"/>
<path id="Vector 214" d="M85.0493 71.5494C85.6125 71.8246 86.173 72.1214 86.7508 72.3662C86.8457 72.4064 86.8776 72.4361 86.858 72.3608C86.8316 72.2588 86.7922 72.1625 86.7544 72.0642" stroke="#00ADB5" stroke-opacity="0.5" stroke-width="0.378328" stroke-linecap="round" stroke-linejoin="round"/>
<path id="Vector 215" d="M85.7567 70.7774C85.8079 70.802 87.3656 71.6468 87.2366 71.3243" stroke="#00ADB5" stroke-opacity="0.5" stroke-width="0.378328" stroke-linecap="round" stroke-linejoin="round"/>
<path id="Vector 216" d="M86.0784 70.2624C86.5486 70.3729 87.0236 70.4735 87.4939 70.5519" stroke="#00ADB5" stroke-opacity="0.5" stroke-width="0.378328" stroke-linecap="round" stroke-linejoin="round"/>
<path id="Vector 217" d="M86.5937 69.7477C86.8082 69.7579 87.0227 69.7685 87.2371 69.7798" stroke="#00ADB5" stroke-opacity="0.5" stroke-width="0.378328" stroke-linecap="round" stroke-linejoin="round"/>
<path id="Vector 218" d="M82.347 79.3992C82.1235 79.4879 80.7466 79.8304 80.7385 80.2106C80.7353 80.3592 80.7385 80.508 80.7563 80.6556C80.8116 81.1138 81.1305 81.3537 81.5213 81.5725C82.018 81.8507 82.5527 81.8594 83.0941 81.7012C83.6086 81.5508 83.9433 80.9816 83.7375 80.493C83.6948 80.3916 83.8426 80.3711 83.7465 80.2535C83.6529 80.1392 83.5914 80.2055 83.4408 80.2356" stroke="#00ADB5" stroke-opacity="0.5" stroke-width="0.378328" stroke-linecap="round" stroke-linejoin="round"/>
<path id="Vector 219" d="M81.6713 80.5893C81.9273 79.9417 82.2464 79.2947 82.3951 78.6108C82.434 78.4318 82.4821 78.2812 82.5792 78.1193C82.7844 77.7774 82.9649 77.4126 83.0868 77.0327C83.2024 76.6722 83.2098 76.3165 83.362 75.9639C83.4164 75.838 83.7408 75.461 83.6015 75.635" stroke="#00ADB5" stroke-opacity="0.5" stroke-width="0.378328" stroke-linecap="round" stroke-linejoin="round"/>
<path id="Vector 220" d="M84.2124 75.957C84.093 76.7021 83.9136 77.4153 83.787 78.1518C83.7168 78.56 83.6011 78.9012 83.6011 79.3314C83.6011 79.6388 83.7109 79.8953 83.6404 80.2035C83.5593 80.5586 83.4863 80.3836 83.3438 80.1392" stroke="#00ADB5" stroke-opacity="0.5" stroke-width="0.378328" stroke-linecap="round" stroke-linejoin="round"/>
<path id="Vector 221" d="M83.891 75.957C83.6673 76.4223 83.1832 77.1871 83.1832 77.7746C83.1832 78.1087 83.2048 78.4632 83.1815 78.8023C83.1537 79.2054 82.8389 79.728 82.6506 80.0749C82.5881 80.1901 82.5067 80.2789 82.4683 80.4037C82.4204 80.5596 82.4546 80.569 82.3468 80.3966" stroke="#00ADB5" stroke-opacity="0.5" stroke-width="0.378328" stroke-linecap="round" stroke-linejoin="round"/>
<path id="Vector 222" d="M81.5746 79.914C82.1225 80.306 83.0896 81.1057 83.7622 80.4144C83.8671 80.3067 84.0186 80.0766 84.0768 79.939C84.1563 79.7511 83.8989 79.9106 83.7301 79.9462" stroke="#00ADB5" stroke-opacity="0.5" stroke-width="0.378328" stroke-linecap="round" stroke-linejoin="round"/>
<path id="Vector 223" d="M82.2182 79.3347C82.5306 79.3247 83.1623 79.4091 83.4657 79.2525C83.4758 79.2473 83.4424 79.2562 83.4336 79.2633C83.4036 79.2872 83.3415 79.2481 83.312 79.2382" stroke="#00ADB5" stroke-opacity="0.5" stroke-width="0.378328" stroke-linecap="round" stroke-linejoin="round"/>
<path id="Vector 224" d="M82.572 78.1445C82.8013 78.2053 83.6311 78.5585 83.6659 78.1767" stroke="#00ADB5" stroke-opacity="0.5" stroke-width="0.378328" stroke-linecap="round" stroke-linejoin="round"/>
<path id="Vector 225" d="M82.9585 77.1794C83.2426 77.365 84.3964 78.2242 84.2132 77.3081" stroke="#00ADB5" stroke-opacity="0.5" stroke-width="0.378328" stroke-linecap="round" stroke-linejoin="round"/>
<path id="Vector 226" d="M83.2802 76.7291C83.5697 76.8042 83.8593 76.8792 84.1488 76.9543" stroke="#00ADB5" stroke-opacity="0.5" stroke-width="0.378328" stroke-linecap="round" stroke-linejoin="round"/>
<path id="Vector 227" d="M84.6951 76.7291C85.0531 77.0663 85.7679 77.8512 85.789 78.4413C85.8061 78.9226 85.789 79.388 85.789 79.8747C85.789 80.2288 85.8566 80.6067 85.8211 80.9435C85.7746 81.3854 85.0958 81.3911 85.2581 81.9104C85.3123 82.0838 85.2651 82.1863 85.4172 82.3108C85.5484 82.4181 85.6438 82.5426 85.6924 82.7129C85.806 83.1103 85.5797 83.469 85.3064 83.7424C85.1352 83.9135 84.9131 84.2575 84.7112 84.3697C84.6114 84.4252 84.4074 84.3858 84.293 84.3858C84.187 84.3858 83.9726 84.4548 83.8766 84.4984C83.7354 84.5626 83.5556 84.4492 83.3761 84.5145" stroke="#00ADB5" stroke-opacity="0.5" stroke-width="0.378328" stroke-linecap="round" stroke-linejoin="round"/>
<path id="Vector 228" d="M79.6762 78.5949C79.8059 79.0256 79.9024 79.3841 80.1194 79.753C80.2086 79.9047 80.1963 80.0423 80.1569 80.2195C80.1112 80.4255 79.9607 80.9086 80.0783 81.1203C80.259 81.4455 80.2552 81.7897 80.2552 82.1497C80.2552 82.4967 80.7977 82.6475 80.9755 82.8253C81.2397 83.0895 81.1251 83.4269 81.5599 83.542C81.655 83.5672 81.8037 83.5687 81.8781 83.6296C81.9345 83.6758 82.0005 83.7913 82.0747 83.8048C82.2278 83.8326 82.4331 83.8022 82.5715 83.8637C82.6872 83.9151 82.7716 83.9892 82.8772 84.0478C82.9935 84.1125 83.1525 84.0398 83.2793 84.1032C83.7119 84.3196 83.5186 84.1138 83.215 83.8709" stroke="#00ADB5" stroke-opacity="0.5" stroke-width="0.378328" stroke-linecap="round" stroke-linejoin="round"/>
</g>
<g id="SPRINKLES">
<path id="Vector 229" d="M47.6622 62.4368C46.8025 63.5367 43.1114 67.9384 46.2565 68.9343C47.2325 69.2434 48.5029 68.5328 49.555 68.6354C51.0425 68.7805 51.8788 70.0452 52.2448 71.3584C52.6662 72.8706 50.341 75.5597 51.4589 76.3727C53.3734 77.765 56.1307 75.4105 57.7129 77.2803C58.6095 78.34 57.6666 79.8797 58.2221 77.3799" stroke="#00ADB5" stroke-opacity="0.5" stroke-width="0.378328" stroke-linecap="round" stroke-linejoin="round"/>
<path id="Vector 230" d="M90.8351 45.302C91.6637 46.3998 93.6355 48.8729 94.3772 50.283C95.0084 51.4833 94.2129 51.4352 93.5359 50.9582C92.7264 50.3879 92.84 49.175 93.071 48.3349C93.8509 45.4988 98.8989 42.8914 99.4689 47.2501C99.6691 48.7811 98.3006 51.3555 96.436 50.7479C93.9745 49.9459 94.1315 46.1891 95.9932 44.7928C97.8976 43.3646 101.019 45.0057 101.019 47.3387C101.019 49.9288 97.94 50.7307 96.7459 48.4456C95.6607 46.3687 97.5838 44.1961 99.646 43.8851C100.405 43.7708 102.364 44.6469 100.996 45.1027" stroke="#00ADB5" stroke-opacity="0.5" stroke-width="0.378328" stroke-linecap="round" stroke-linejoin="round"/>
<path id="Vector 231" d="M132.476 65.0271C131.186 66.3091 127.109 69.2981 130.539 70.462C132.535 71.1392 134.383 70.0289 135.62 68.5139C136.985 66.842 137.216 64.1981 135.044 63.1122C133.355 62.2676 131.9 60.9111 130.484 63.0347" stroke="#00ADB5" stroke-opacity="0.5" stroke-width="0.378328" stroke-linecap="round" stroke-linejoin="round"/>
<path id="Vector 233" d="M176.509 82.5603C174.045 84.0278 170.305 85.8004 174.118 87.1872C174.704 87.4003 175.086 87.2616 175.602 86.8994C177.508 85.5598 177.62 85.0232 177.505 82.9588C177.429 81.5919 175.431 81.9042 174.517 82.3611C173.169 83.0349 172.229 84.3835 171.683 85.7482C170.949 87.5845 174.746 87.4722 175.269 85.2612C175.598 83.8751 174.012 81.9061 172.923 83.6008C171.479 85.8461 173.682 87.8541 175.07 85.5047C176.4 83.2545 173.293 82.3264 172.458 84.9512C171.36 88.4023 177.887 84.6552 175.513 83.468C174.098 82.7604 171.708 87.254 174.318 86.1356C177.486 84.7777 173.941 82.7765 173.941 85.9475C173.941 88.5207 178.197 84.7862 175.424 83.7779C174.79 83.5474 174.165 85.5732 174.616 86.0249C175.402 86.8105 176.767 84.7761 176.697 84.0436C176.398 80.8993 173.32 88.8931 176.985 85.228C177.822 84.3907 177.788 82.8775 176.398 83.7669C175.578 84.2917 175.06 86.5192 176.609 86.0028C178.096 85.5069 178.096 82.7513 176.498 83.3905C175.523 83.7807 175.169 85.1615 174.118 84.9512" stroke="#00ADB5" stroke-opacity="0.5" stroke-width="0.378328" stroke-linecap="round" stroke-linejoin="round"/>
<path id="Vector 234" d="M154.991 103.082C154.58 103.536 148.014 111.637 151.316 107.51C152.071 106.566 152.764 105.638 153.795 104.975C154.431 104.567 155.043 104.314 155.588 103.769C156.185 103.172 155.339 103.211 155.201 104.455C155.081 105.538 155.173 110.266 154.991 110.255C153.76 110.183 152.953 108.971 151.814 108.572C151.204 108.359 149.394 108.666 149.899 108.263C151.133 107.275 154.913 104.444 153.795 105.562C152.949 106.408 151.209 109.59 151.803 108.55C152.225 107.811 153.368 105.402 153.197 105.805C152.847 106.635 152.238 108.056 152.29 108.971C152.339 109.839 154.064 107.703 154.172 107.488C154.971 105.889 153.317 109.485 153.906 108.628C154.436 107.856 156.23 105.894 154.946 107.82C154.665 108.241 156.276 106.297 155.987 106.713C155.903 106.834 155.173 108.058 155.599 107.632C157.127 106.104 154.876 107.692 154.592 107.266" stroke="#00ADB5" stroke-opacity="0.5" stroke-width="0.378328" stroke-linecap="round" stroke-linejoin="round"/>
<path id="Vector 235" d="M141.641 136.157C142.338 135.163 146.324 130.782 143.047 130.589C142.493 130.556 141.351 130.376 140.888 130.755C139.788 131.655 140.265 134.082 141.752 134.352C143.723 134.711 145.57 132.015 143.434 130.976C141.203 129.891 135.936 134.251 138.209 136.046C142.686 139.58 146.734 129.31 140.943 130.788C135.691 132.129 140.318 137.539 142.703 134.053C145.257 130.321 137.383 130.289 138.774 134.463C139.46 136.522 141.712 135.528 142.117 133.865C142.71 131.428 140.285 132.434 140.246 134.12C140.204 135.926 142.988 132.658 141.32 132.803C140.115 132.907 139.996 134.563 139.051 134.563" stroke="#00ADB5" stroke-opacity="0.5" stroke-width="0.378328" stroke-linecap="round" stroke-linejoin="round"/>
<path id="Vector 236" d="M62.3429 117.428C62.7453 119.253 63.5383 124.776 63.5383 122.907C63.5383 121.616 62.5525 120.412 62.354 119.121C62.2846 118.67 62.4277 117.336 62.044 117.029C61.7815 116.819 64.2626 118.75 64.922 119.121C66.1252 119.798 66.9876 121.062 68.0324 119.719C68.534 119.074 70.0096 118.985 70.213 118.822C71.6883 117.642 71.5529 115.881 71.8954 114.339C72.0176 113.79 71.7073 116.216 71.7073 116.93C71.7073 117.842 71.872 119.05 72.1168 119.907C72.4645 121.124 72.3253 117.69 71.9951 117.029C71.4586 115.956 71.508 115.004 71.508 113.841C71.508 113.382 74.8387 119.136 74.2531 119.575C74.0084 119.759 70.7469 118.859 69.7591 119.177C68.9083 119.45 68.1309 119.769 67.3239 120.173C67.1033 120.283 66.7393 120.685 66.8812 120.571C67.387 120.167 68.9347 119.06 68.3202 119.265C67.476 119.547 66.6468 120.363 65.885 120.815C64.449 121.666 63.9844 121.547 63.3834 123.006C63.2968 123.217 64.3687 123.19 64.5788 123.25C66.0867 123.681 67.0343 122.506 68.3644 121.966C70.0812 121.269 72.0553 119.836 73.8989 119.619C75.2907 119.456 73.1746 118.968 73.102 118.822" stroke="#00ADB5" stroke-opacity="0.5" stroke-width="0.378328" stroke-linecap="round" stroke-linejoin="round"/>
<path id="Vector 237" d="M138.453 40.7198C142.208 39.5161 148.29 38.1317 151.648 35.3845C152.257 34.8861 153.201 34.4082 152.987 33.4475C152.185 29.8382 150.44 28.9917 146.999 29.3741C145.09 29.5861 143.258 31.3467 141.486 32.0638C139.662 32.8021 137.837 33.7722 136.173 34.8311C134.489 35.9028 135.465 36.4337 135.465 38.2846C135.465 39.3024 136.073 40.7198 137.158 40.7198C137.653 40.7198 139.072 40.3213 137.668 40.3213C136.566 40.3213 134.855 40.4883 133.871 39.9671C133.119 39.5691 134.603 38.7855 134.956 38.7385C136.215 38.5706 133.513 39.8024 133.24 39.8896C132.679 40.0691 135.264 38.1105 133.827 38.5724C132.269 39.0731 134.581 37.7305 135.066 37.4877C135.615 37.2136 135.136 37.6475 135.266 37.4212C135.472 37.0592 136.67 35.7291 135.587 36.8124C135.224 37.1751 136.405 36.1939 136.804 35.8716C137.556 35.2646 136.602 36.1855 136.417 36.3365C135.562 37.0321 135.362 36.4708 134.668 36.7792C134.378 36.9082 133.672 37.3358 133.672 36.8346C133.672 35.9698 136.723 35.5759 137.28 35.5506C140.693 35.3955 143.081 33.89 146.224 33.1043C147.736 32.7262 149.389 32.1817 150.806 31.5104C151.858 31.0125 153.963 29.4537 155.079 29.7726C155.518 29.8978 148.752 33.8345 150.696 32.5509C152.304 31.4891 154.148 30.7435 151.736 32.7391C149.805 34.3377 153.203 32.4756 153.474 32.5841C153.961 32.779 150.474 34.7707 153.131 33.5471C154.147 33.0791 154.991 33.056 154.991 31.9532C154.991 30.4561 155.4 28.6817 153.496 29.3741C151.299 30.173 149.536 31.8806 147.264 32.5509C145.698 33.013 144.173 33.5965 142.638 34.1448C140.856 34.781 137.632 35.4925 136.361 37.0449C135.684 37.8723 134.479 41.0966 136.97 39.7015C139.256 38.4216 139.619 35.8322 140.844 33.7906C141.453 32.7766 139.784 35.9324 139.538 37.0892C139.256 38.4196 140.507 39.9506 141.94 39.7015C143.512 39.4282 145.165 37.2579 145.726 35.938C148.422 29.594 143.531 35.7471 144.918 37.1334C146.389 38.6048 148.631 34.7072 148.925 33.7463C149.278 32.5886 149.486 31.1616 149.91 30.0604C150.459 28.6321 146.952 30.2407 146.622 30.4035C144.798 31.3051 143.524 32.5077 142.283 34.1005C141.834 34.6771 140.031 37.3909 141.265 38.0079C142.919 38.8348 144.949 36.2646 144.995 34.9307C145.151 30.4123 141.431 32.728 139.184 34.499C137.796 35.5934 139.002 37.7805 139.25 37.5319" stroke="#00ADB5" stroke-opacity="0.5" stroke-width="0.378328" stroke-linecap="round" stroke-linejoin="round"/>
<path id="Vector 238" d="M88.0455 148.709C87.959 148.778 84.6805 151.606 84.6805 150.801C84.6805 150.329 85.0433 149.825 85.3668 149.517C86.0063 148.908 88.5322 148.439 87.9238 149.926C87.5157 150.924 85.8481 152.394 85.3779 150.513C85.1826 149.732 86.5232 148.165 87.3371 148.83C88.2347 149.565 86.305 150.5 85.6989 150.17C84.6162 149.579 85.9164 147.477 86.9608 147.912C88.0529 148.367 86.5509 149.611 86.0531 149.86C84.8895 150.442 85.0523 149.501 84.4592 148.908" stroke="#00ADB5" stroke-opacity="0.5" stroke-width="0.378328" stroke-linecap="round" stroke-linejoin="round"/>
<path id="Vector 239" d="M34.0505 148.51C35.199 150.402 37.3864 152.366 35.1574 154.088C34.5824 154.533 31.1907 156.309 31.3939 154.243C31.6413 151.728 35.3902 151.672 35.6222 149.417C35.8518 147.188 30.5267 148.028 29.3129 146.517C28.5525 145.571 27.9393 143.474 28.1175 142.267C28.1868 141.796 29.3792 140.884 29.2576 141.735C29.0349 143.294 24.0088 147.287 26.9884 148.598C28.9861 149.477 29.5015 147.252 30.9733 146.716C34.0048 145.614 29.4679 153.79 29.4679 151.697" stroke="#00ADB5" stroke-opacity="0.5" stroke-width="0.378328" stroke-linecap="round" stroke-linejoin="round"/>
<path id="Vector 240" d="M131.679 174.411C130.756 176.595 128.889 183.323 128.889 180.953C128.889 180.583 128.961 180.291 129.089 179.945C129.688 178.322 130.383 176.812 131.391 175.385C131.941 174.606 132.597 172.326 133.383 174.057C133.75 174.864 134.8 177.112 134.357 177.997C133.802 179.109 132.077 179.746 130.926 179.791C130.626 179.802 127.483 180.215 128.502 179.281C129.699 178.184 130.857 174.847 132.664 174.621C132.943 174.586 133.526 174.773 133.771 174.909C134.202 175.149 133.677 175.582 133.472 175.916C133.226 176.317 131.284 179.027 131.28 178.905C131.225 177.089 133.088 174.453 134.092 173.083C134.452 172.591 132.536 175.927 132.099 176.68C131.761 177.263 132.202 178.501 130.682 178.197" stroke="#00ADB5" stroke-opacity="0.5" stroke-width="0.378328" stroke-linecap="round" stroke-linejoin="round"/>
<path id="Vector 241" d="M69.9142 14.2203C69.0254 17.698 68.2332 21.0115 67.9108 24.5588C67.8785 24.9136 67.6542 25.143 67.8775 25.4222C68.2099 25.8376 69.089 23.1961 69.4272 22.4889C70.4993 20.2472 71.7074 19.3625 71.7074 16.6112C71.7074 16.2143 71.7074 13.9293 71.7074 15.4379C71.7074 16.7187 71.9501 17.9845 71.8624 19.2678C71.7961 20.2377 70.865 22.8553 71.5525 22.1679C72.6135 21.1068 71.7634 15.7867 70.1024 15.6482C67.8352 15.4593 66.7419 20.3736 66.4829 21.9022C66.1814 23.6808 67.4353 24.4254 68.8184 23.0423C70.7062 21.1545 71.1156 17.2734 69.4936 15.0616C67.2652 12.0229 65.8029 17.5057 65.6195 18.8472C65.2045 21.8816 66.8993 22.854 68.907 20.6957C69.6454 19.9019 71.1342 18.5293 70.8219 17.2975C70.4065 15.659 67.9847 17.2501 67.5012 17.9617C66.8156 18.9707 66.8245 21.4839 67.9329 22.2011C68.9677 22.8707 69.9748 20.0961 69.8589 19.4006C69.3673 16.4511 63.8074 21.1334 66.5714 22.8099C68.977 24.269 70.5717 17.7411 67.6119 18.5483C66.7876 18.7731 64.8301 20.9946 66.5271 20.9946" stroke="#00ADB5" stroke-opacity="0.5" stroke-width="0.378328" stroke-linecap="round" stroke-linejoin="round"/>
<path id="Vector 242" d="M17.1146 71.0047C16.2193 73.5414 15.5747 75.1605 13.3069 76.5834C12.7375 76.9407 11.985 77.5727 11.8679 78.2881C11.6178 79.8165 14.0287 81.501 15.3989 81.0443C18.286 80.0819 13.9172 77.2245 13.4508 76.3953C12.6387 74.9515 15.5739 72.358 16.9265 73.1188C17.9793 73.7111 18.446 75.7749 17.8231 76.7827C16.9155 78.2508 14.9649 78.3088 13.4397 78.0778C12.2251 77.8937 9.79216 78.1439 10.5064 79.9484C11.4002 82.2064 15.6185 81.023 16.2513 79.1072C16.8673 77.242 13.5323 76.5392 14.2478 74.7903C14.7392 73.589 16.291 72.0894 17.6681 72.0894C19.3176 72.0894 17.6703 75.1707 17.4246 75.6537C16.3394 77.7865 14.6791 77.9993 12.5763 78.5759C8.6188 79.661 12.8822 79.8137 13.1298 78.5759" stroke="#00ADB5" stroke-opacity="0.5" stroke-width="0.378328" stroke-linecap="round" stroke-linejoin="round"/>
<path id="Vector 243" d="M12.3337 98.3006C11.9107 99.8933 10.6602 102.611 10.784 104.344C10.842 105.156 11.0638 102.74 11.1604 101.931C11.3443 100.391 11.5546 98.6516 12.378 97.3044C12.5241 97.0653 15.9033 101.283 16.2078 101.976C17.0229 103.828 16.0025 103.475 14.7246 104.079C14.0144 104.414 9.16794 106.125 9.16794 105.673C9.16794 105.199 10.0816 104.236 10.297 103.835C10.9711 102.581 11.6944 101.006 11.9795 99.6067C12.5884 96.6176 12.1344 102.769 12.1344 103.237C12.1344 103.522 12.2449 105.186 11.581 105.186C10.75 105.186 12.1427 103.621 12.4222 102.839C12.7186 102.009 13.8983 99.5632 13.6066 98.688C13.1934 97.4485 12.9867 101.245 12.9425 102.551C12.9125 103.436 12.4842 104.914 13.1749 103.481C13.395 103.024 14.1055 101.153 14.0936 101.289C13.9935 102.441 13.5291 103.629 13.5291 104.787C13.5291 105.973 14.1545 102.156 15.2338 101.666C15.5021 101.544 15.1231 103.793 15.1231 104.123C15.1231 104.723 15.6987 101.819 15.6987 102.418C15.6987 102.585 15.4598 103.596 15.278 103.282C14.5329 101.995 13.9723 101.199 12.4444 100.736C11.7485 100.525 9.53657 100.669 10.2638 100.669C10.7418 100.669 11.4925 99.006 12.0237 99.4407C12.7286 100.017 11.7613 101.858 11.5367 102.485C11.169 103.51 10.9388 102.068 11.8466 102.175C12.7925 102.286 11.8275 105.779 12.3558 104.986C12.601 104.618 13.3438 102.804 13.3188 103.016C12.8365 107.115 12.9369 101.895 13.7284 103.082" stroke="#00ADB5" stroke-opacity="0.5" stroke-width="0.378328" stroke-linecap="round" stroke-linejoin="round"/>
<path id="Vector 244" d="M110.958 44.1067C113.493 43.9816 115.941 44.9187 115.54 41.9151C115.342 40.4267 114.508 37.9935 114.942 36.5355C115.404 34.9877 118.238 31.4968 115.817 30.4033C113.786 29.4864 111.133 32.0794 110.758 33.8347C110.603 34.5648 110.636 36.8455 111.843 36.8455C112.755 36.8455 113.338 35.9497 114.134 36.7459C115.175 37.7866 115.361 38.736 114.621 40.0444C112.846 43.185 105.824 39.6771 109.607 35.8935C110.126 35.3749 112.177 32.9965 113.149 33.6797C114.487 34.6197 114.306 37.0669 113.614 38.2844C112.924 39.4986 110.392 40.7699 109.397 39.2142C108.905 38.4455 109.14 37.9302 109.961 37.9302" stroke="#00ADB5" stroke-opacity="0.5" stroke-width="0.378328" stroke-linecap="round" stroke-linejoin="round"/>
<path id="Vector 245" d="M132.184 62.7525C132.418 62.658 139.707 59.0597 139.368 61.0368C139.186 62.0979 139.307 63.0875 139.456 64.1472C139.513 64.5526 140.501 67.7114 139.512 67.7114C137.667 67.7114 135.868 66.7853 134.021 67.1358C133.256 67.2812 131.732 67.8056 131.675 66.5824C131.632 65.6652 130.87 61.5418 132.682 61.9445C134.175 62.2763 134.24 61.0911 133.18 63.7266C133.03 64.1007 132.04 66.9118 132.206 66.7816C133.863 65.4794 134.773 62.9754 136.29 61.4574C137.238 60.5095 135.613 64.3139 135.416 64.7892C134.407 67.2173 136.985 62.7314 137.276 62.2876C138.55 60.339 137.582 63.8276 137.386 64.4018C136.797 66.1281 138.609 62.9046 139.334 62.4758C141.739 61.0549 139.467 65.9625 138.958 64.9442" stroke="#00ADB5" stroke-opacity="0.5" stroke-width="0.378328" stroke-linecap="round" stroke-linejoin="round"/>
<path id="Vector 247" d="M112.552 100.293C112.667 103.222 112.615 104.819 115.098 102.972C115.802 102.448 115.503 103.688 115.33 103.99C115.042 104.495 113.35 107.033 115.054 106.06C115.485 105.814 116.648 105.322 116.648 106.27C116.648 106.42 116.126 108.253 116.637 107.742C117.473 106.906 117.488 103.754 117.533 102.529C117.543 102.262 117.66 101.95 117.422 102.086C116.201 102.784 115.621 106.438 114.987 107.864C114.44 109.096 112.862 107.645 111.954 107.067C110.234 105.972 111.316 106.75 111.357 106.669" stroke="#00ADB5" stroke-opacity="0.5" stroke-width="0.378328" stroke-linecap="round" stroke-linejoin="round"/>
<path id="Vector 248" d="M98.8051 126.394C98.7976 126.487 98.5637 132.206 98.6058 129.427C98.6187 128.578 98.5942 127.729 98.6058 126.881C98.6388 124.471 99.0689 125.589 100.111 126.582C100.589 127.037 102.342 128.02 102.059 128.94C101.976 129.211 99.1611 129.701 98.7165 129.87C98.3829 129.996 96.4142 131.236 96.4142 131.176C96.4142 129.695 96.9356 128.093 97.1115 126.615C97.484 123.486 99.6492 131.863 99.7902 129.748C99.8234 129.25 99.8013 126.286 99.8013 127.025C99.8013 127.575 100.2 130.51 100.2 128.586C100.2 128.15 100.2 127.715 100.2 127.279C100.2 127.074 100.312 128.057 100.388 127.866C100.664 127.176 100.2 125.788 100.2 127.479C100.2 129.376 99.6678 128.01 98.5062 128.01C97.5125 128.01 96.9434 131.651 97.4546 130.799C97.9025 130.053 97.0203 127.014 97.4104 128.575C97.6146 129.391 98.1052 128.489 98.4066 128.187" stroke="#00ADB5" stroke-opacity="0.5" stroke-width="0.378328" stroke-linecap="round" stroke-linejoin="round"/>
</g>
</g>
</svg>
