<svg width="152" height="180" viewBox="0 0 152 180" fill="none" xmlns="http://www.w3.org/2000/svg">
<g id="Group 2346">
<g id="Group 2345">
<g id="Group 58">
<g id="Group 57">
<g id="Union">
<path fill-rule="evenodd" clip-rule="evenodd" d="M109.859 36.3957C108.935 36.0586 108.055 35.5658 107.252 34.8816C101.19 29.717 103.789 21.925 107.458 17.8683C111.127 13.8116 133.57 15.4297 122.982 34.2227C122.938 34.2495 122.893 34.2765 122.846 34.3036C121.663 38.0702 122.661 41.3008 123.859 45.177C124.347 46.758 124.869 48.4463 125.289 50.3223L114.061 49.5177C110.974 45.3268 109.804 41.1024 109.859 36.3957Z" fill="#F5B9AB"/>
<path d="M107.252 34.8816L107.08 35.083L107.252 34.8816ZM109.859 36.3957L109.95 36.1471C110.055 36.1856 110.125 36.2865 110.124 36.3988L109.859 36.3957ZM107.458 17.8683L107.262 17.6908L107.458 17.8683ZM122.982 34.2227L123.213 34.3525C123.191 34.3924 123.158 34.4257 123.119 34.4493L122.982 34.2227ZM122.846 34.3036L122.594 34.2243C122.614 34.1617 122.656 34.1087 122.712 34.0755L122.846 34.3036ZM123.859 45.177L123.606 45.2552L123.859 45.177ZM125.289 50.3223L125.547 50.2644C125.566 50.3461 125.544 50.4315 125.49 50.4949C125.435 50.5584 125.354 50.5922 125.27 50.5862L125.289 50.3223ZM114.061 49.5177L114.042 49.7816C113.964 49.7761 113.893 49.737 113.847 49.6746L114.061 49.5177ZM107.423 34.6802C108.201 35.3427 109.053 35.8201 109.95 36.1471L109.769 36.6443C108.817 36.2971 107.909 35.7889 107.08 35.083L107.423 34.6802ZM107.654 18.0458C105.851 20.0401 104.312 22.9522 103.969 25.9892C103.627 29.0139 104.468 32.1621 107.423 34.6802L107.08 35.083C103.974 32.4365 103.084 29.1063 103.443 25.9297C103.801 22.7653 105.396 19.7532 107.262 17.6908L107.654 18.0458ZM122.752 34.0928C125.381 29.4262 125.933 25.8725 125.282 23.2318C124.634 20.5983 122.775 18.8153 120.453 17.716C118.127 16.615 115.353 16.2104 112.934 16.3337C111.725 16.3954 110.612 16.5884 109.694 16.8871C108.772 17.1874 108.069 17.587 107.654 18.0458L107.262 17.6908C107.764 17.1353 108.565 16.6981 109.531 16.3839C110.501 16.068 111.661 15.8687 112.907 15.8052C115.396 15.6783 118.259 16.0922 120.679 17.2377C123.103 18.385 125.1 20.2767 125.796 23.1053C126.491 25.9267 125.878 29.6227 123.213 34.3525L122.752 34.0928ZM122.712 34.0755C122.758 34.0488 122.802 34.0223 122.846 33.996L123.119 34.4493C123.074 34.4767 123.027 34.5042 122.98 34.5318L122.712 34.0755ZM123.606 45.2552C122.411 41.39 121.382 38.0809 122.594 34.2243L123.099 34.383C121.943 38.0594 122.91 41.2116 124.111 45.0989L123.606 45.2552ZM125.031 50.3801C124.613 48.5159 124.095 46.837 123.606 45.2552L124.111 45.0989C124.6 46.679 125.124 48.3768 125.547 50.2644L125.031 50.3801ZM114.079 49.2538L125.308 50.0583L125.27 50.5862L114.042 49.7816L114.079 49.2538ZM110.124 36.3988C110.069 41.0522 111.224 45.2196 114.274 49.3608L113.847 49.6746C110.725 45.4341 109.539 41.1526 109.595 36.3926L110.124 36.3988Z" fill="black"/>
</g>
<path id="Vector 66" d="M124.998 22.8739C126.755 25.3185 124.863 31.3561 123.466 32.8663C135.037 26.4463 127.712 11.9613 124.142 14.6027C123.56 9.2474 117.415 7.35793 113.226 11.8871C102.723 3.40566 102.171 17.8578 105.878 20.0556C109.585 22.2534 114.082 20.1604 116.416 21.2938C118.75 22.4271 120.191 29.2923 120.947 25.482C121.703 21.6717 122.802 19.8182 124.998 22.8739Z" fill="#00ADB5" stroke="black" stroke-width="0.529231"/>
</g>
</g>
<g id="Group 2343">
<path id="Vector 83" d="M135.382 129.513L119.095 128.331L123.015 84.4917C123.015 84.4917 104.119 39.7134 120.34 39.7132C143.259 39.7132 150.923 75.025 150.638 84.4917C150.352 93.9584 135.382 129.513 135.382 129.513Z" fill="#EEEEEE" stroke="black" stroke-width="0.529231"/>
<path id="Vector 84" d="M118.972 130.227L119.2 128.247L135.601 128.906L135.239 132.087C134.655 137.23 129.503 140.547 124.579 138.95C120.872 137.748 118.526 134.099 118.972 130.227Z" fill="#F5B9AB" stroke="black" stroke-width="0.529231" stroke-linejoin="round"/>
</g>
<path id="Vector 53" d="M95.3321 97.9648C84.7379 87.6929 97.9037 53.6683 100.051 49.619C103.177 43.8487 112.561 33.8104 125.084 39.8198C144.022 48.9072 135.368 93.8708 131.964 109.457L95.3321 97.9648Z" fill="#EEEEEE" stroke="black" stroke-width="0.529231"/>
<path id="Rectangle 59" d="M12.8351 133.624L11.1279 118.192C11.1279 118.192 50.7651 105.346 83.4324 100.526L128.286 104.4C135.024 120.322 131.701 149.582 81.7294 136.13L12.8351 133.624Z" fill="#00ADB5" stroke="black" stroke-width="0.529231"/>
<g id="Union_2">
<path fill-rule="evenodd" clip-rule="evenodd" d="M60.8659 106.586L53.8234 128.489L39.0473 127.767L32.3053 86.9061C31.1883 80.1368 36.4108 73.982 43.2716 73.982L52.4129 73.982L53.0445 72.995L56.1131 73.982C58.5663 73.9847 60.7875 74.7654 62.5878 76.0648L124.68 96.0385C134.283 99.1275 138.603 110.277 133.587 119.029L124.088 135.605C119.157 144.209 107.629 146.231 100.064 139.818L60.8659 106.586Z" fill="#00ADB5"/>
<path d="M60.8659 106.586L61.037 106.384L60.7351 106.128L60.614 106.505L60.8659 106.586ZM53.8234 128.489L53.8105 128.754L54.0132 128.763L54.0753 128.57L53.8234 128.489ZM39.0473 127.767L38.7862 127.811L38.821 128.021L39.0344 128.032L39.0473 127.767ZM32.3053 86.9061L32.5663 86.863L32.5663 86.863L32.3053 86.9061ZM43.2716 73.982V73.7174V73.982ZM52.4129 73.982V74.2466H52.5578L52.6358 74.1246L52.4129 73.982ZM53.0445 72.995L53.1255 72.7431L52.9315 72.6806L52.8216 72.8523L53.0445 72.995ZM56.1131 73.982L56.032 74.2339L56.0714 74.2466L56.1128 74.2467L56.1131 73.982ZM62.5878 76.0648L62.4329 76.2793L62.4669 76.3039L62.5067 76.3167L62.5878 76.0648ZM124.68 96.0385L124.599 96.2904L124.68 96.0385ZM133.587 119.029L133.357 118.897L133.587 119.029ZM124.088 135.605L123.858 135.473L124.088 135.605ZM100.064 139.818L99.8932 140.02L100.064 139.818ZM60.614 106.505L53.5715 128.408L54.0753 128.57L61.1178 106.667L60.614 106.505ZM53.8363 128.225L39.0602 127.503L39.0344 128.032L53.8105 128.754L53.8363 128.225ZM39.3084 127.724L32.5663 86.863L32.0442 86.9492L38.7862 127.811L39.3084 127.724ZM32.5663 86.863C31.476 80.2548 36.5741 74.2466 43.2716 74.2466V73.7174C36.2474 73.7174 30.9007 80.0187 32.0442 86.9492L32.5663 86.863ZM43.2716 74.2466L52.4129 74.2466V73.7174L43.2716 73.7174V74.2466ZM52.6358 74.1246L53.2674 73.1376L52.8216 72.8523L52.1901 73.8394L52.6358 74.1246ZM52.9635 73.2469L56.032 74.2339L56.1941 73.7301L53.1255 72.7431L52.9635 73.2469ZM56.1128 74.2467C58.5087 74.2493 60.6761 75.0113 62.4329 76.2793L62.7426 75.8502C60.8989 74.5194 58.6239 73.7202 56.1134 73.7174L56.1128 74.2467ZM62.5067 76.3167L124.599 96.2904L124.762 95.7866L62.6688 75.8129L62.5067 76.3167ZM124.599 96.2904C134.042 99.3278 138.289 110.291 133.357 118.897L133.817 119.16C138.916 110.262 134.525 98.9271 124.762 95.7866L124.599 96.2904ZM133.357 118.897L123.858 135.473L124.317 135.736L133.817 119.16L133.357 118.897ZM123.858 135.473C119.01 143.934 107.674 145.922 100.235 139.616L99.8932 140.02C107.584 146.54 119.304 144.484 124.317 135.736L123.858 135.473ZM100.235 139.616L61.037 106.384L60.6948 106.788L99.8932 140.02L100.235 139.616Z" fill="black"/>
</g>
<path id="Vector 61" d="M38.8769 127.601L53.9864 128.494L55.158 141.179C55.158 141.179 41.9026 140.794 33.8618 138.279L39.2664 135.623L38.8769 127.601Z" fill="#EEEEEE" stroke="black" stroke-width="0.529231" stroke-linejoin="round"/>
<rect id="Rectangle 53" width="36.9902" height="6.93567" rx="0.759975" transform="matrix(0.258819 0.965926 0.965926 -0.258819 33.7852 35.1385)" fill="#EEEEEE" stroke="black" stroke-width="0.529231"/>
<rect id="Rectangle 54" width="36.9902" height="6.93567" rx="0.759975" transform="matrix(-1 0 0 1 78.8799 67.2509)" fill="#00ADB5" stroke="black" stroke-width="0.529231"/>
<path id="Vector 82" d="M11.2456 118.203L13.1144 133.632L1.836 136.745C1.836 136.745 -0.288931 123.451 0.740775 114.959L4.46554 119.853L11.2456 118.203Z" fill="#EEEEEE" stroke="black" stroke-width="0.529231" stroke-linejoin="round"/>
<path id="Vector 83_2" d="M67.2534 78.297L75.7173 64.1942L101.668 78.325C100.478 62.0165 111.672 38.5465 123.426 39.9762C144.047 42.484 128.855 93.3116 115.347 102.271C101.839 111.23 67.2534 78.297 67.2534 78.297Z" fill="#EEEEEE"/>
<path id="Vector 54" d="M131.637 71.1701C128.446 84.5428 121.71 98.0509 115.347 102.271C101.839 111.23 67.2538 78.2969 67.2538 78.2969L75.7178 64.1941L101.669 78.3249L110.489 56.1969" stroke="black" stroke-width="0.529231"/>
<path id="Vector 59" d="M74.1769 63.1239L75.7978 64.2827L67.2706 78.3083L64.6638 76.4501C60.4488 73.4455 60.0453 67.3322 63.8289 63.7998C66.6776 61.14 71.0064 60.8573 74.1769 63.1239Z" fill="#F5B9AB" stroke="black" stroke-width="0.529231" stroke-linejoin="round"/>
</g>
</g>
</svg>
